<?xml version="1.0" encoding="utf-8" standalone="no"?>
<!DOCTYPE svg PUBLIC "-//W3C//DTD SVG 1.1//EN"
  "http://www.w3.org/Graphics/SVG/1.1/DTD/svg11.dtd">
<svg xmlns:xlink="http://www.w3.org/1999/xlink" width="630.623125pt" height="237.036562pt" viewBox="0 0 630.623125 237.036562" xmlns="http://www.w3.org/2000/svg" version="1.1">
 <metadata>
  <rdf:RDF xmlns:dc="http://purl.org/dc/elements/1.1/" xmlns:cc="http://creativecommons.org/ns#" xmlns:rdf="http://www.w3.org/1999/02/22-rdf-syntax-ns#">
   <cc:Work>
    <dc:type rdf:resource="http://purl.org/dc/dcmitype/StillImage"/>
    <dc:format>image/svg+xml</dc:format>
    <dc:creator>
     <cc:Agent>
      <dc:title>Matplotlib v3.11.0, https://matplotlib.org/</dc:title>
     </cc:Agent>
    </dc:creator>
   </cc:Work>
  </rdf:RDF>
 </metadata>
 <defs>
  <style type="text/css">*{stroke-linejoin: round; stroke-linecap: butt}</style>
 </defs>
 <g id="figure_1">
  <g id="patch_1">
   <path d="M 0 237.036562 
L 630.623125 237.036562 
L 630.623125 0 
L 0 0 
z
" style="fill: #ffffff"/>
  </g>
  <g id="axes_1">
   <g id="patch_2">
    <path d="M 49.305469 198.835781 
L 312.383125 198.835781 
L 312.383125 22.318125 
L 49.305469 22.318125 
z
" style="fill: #ffffff"/>
   </g>
   <g id="line2d_1">
    <path d="M 200.774422 198.835781 
L 200.774422 22.318125 
" clip-path="url(#p2c8c7adc11)" style="fill: none; stroke: #e0e0e0; stroke-width: 0.8; stroke-linecap: square"/>
   </g>
   <g id="line2d_2">
    <path d="M 160.914171 198.835781 
L 160.914171 22.318125 
" clip-path="url(#p2c8c7adc11)" style="fill: none; stroke: #e0e0e0; stroke-width: 0.8; stroke-linecap: square"/>
   </g>
   <g id="line2d_3">
    <path d="M 180.844297 198.835781 
L 180.844297 22.318125 
" clip-path="url(#p2c8c7adc11)" style="fill: none; stroke: #e0e0e0; stroke-width: 0.8; stroke-linecap: square"/>
   </g>
   <g id="line2d_4">
    <path d="M 253.921419 198.835781 
L 253.921419 22.318125 
" clip-path="url(#p2c8c7adc11)" style="fill: none; stroke: #e0e0e0; stroke-width: 0.8; stroke-linecap: square"/>
   </g>
   <g id="line2d_5">
    <path d="M 107.767175 198.835781 
L 107.767175 22.318125 
" clip-path="url(#p2c8c7adc11)" style="fill: none; stroke: #e0e0e0; stroke-width: 0.8; stroke-linecap: square"/>
   </g>
   <g id="matplotlib.axis_1">
    <g id="xtick_1">
     <g id="line2d_6">
      <defs>
       <path id="md184c609d4" d="M 0 0 
L 0 3.5 
" style="stroke: #000000; stroke-width: 0.8"/>
      </defs>
      <g>
       <use xlink:href="#md184c609d4" x="61.263544" y="198.835781" style="stroke: #000000; stroke-width: 0.8"/>
      </g>
     </g>
     <g id="text_1">
      <!-- −180 -->
      <g transform="translate(47.52995 213.433437) scale(0.1 -0.1)">
       <defs>
        <path id="DejaVuSans-c9c" d="M 678 2272 
L 4684 2272 
L 4684 1741 
L 678 1741 
L 678 2272 
z
" transform="scale(0.015625)"/>
        <path id="DejaVuSans-14" d="M 794 531 
L 1825 531 
L 1825 4091 
L 703 3866 
L 703 4441 
L 1819 4666 
L 2450 4666 
L 2450 531 
L 3481 531 
L 3481 0 
L 794 0 
L 794 531 
z
" transform="scale(0.015625)"/>
        <path id="DejaVuSans-1b" d="M 2034 2216 
Q 1584 2216 1326 1975 
Q 1069 1734 1069 1313 
Q 1069 891 1326 650 
Q 1584 409 2034 409 
Q 2484 409 2743 651 
Q 3003 894 3003 1313 
Q 3003 1734 2745 1975 
Q 2488 2216 2034 2216 
z
M 1403 2484 
Q 997 2584 770 2862 
Q 544 3141 544 3541 
Q 544 4100 942 4425 
Q 1341 4750 2034 4750 
Q 2731 4750 3128 4425 
Q 3525 4100 3525 3541 
Q 3525 3141 3298 2862 
Q 3072 2584 2669 2484 
Q 3125 2378 3379 2068 
Q 3634 1759 3634 1313 
Q 3634 634 3220 271 
Q 2806 -91 2034 -91 
Q 1263 -91 848 271 
Q 434 634 434 1313 
Q 434 1759 690 2068 
Q 947 2378 1403 2484 
z
M 1172 3481 
Q 1172 3119 1398 2916 
Q 1625 2713 2034 2713 
Q 2441 2713 2670 2916 
Q 2900 3119 2900 3481 
Q 2900 3844 2670 4047 
Q 2441 4250 2034 4250 
Q 1625 4250 1398 4047 
Q 1172 3844 1172 3481 
z
" transform="scale(0.015625)"/>
        <path id="DejaVuSans-13" d="M 2034 4250 
Q 1547 4250 1301 3770 
Q 1056 3291 1056 2328 
Q 1056 1369 1301 889 
Q 1547 409 2034 409 
Q 2525 409 2770 889 
Q 3016 1369 3016 2328 
Q 3016 3291 2770 3770 
Q 2525 4250 2034 4250 
z
M 2034 4750 
Q 2819 4750 3233 4129 
Q 3647 3509 3647 2328 
Q 3647 1150 3233 529 
Q 2819 -91 2034 -91 
Q 1250 -91 836 529 
Q 422 1150 422 2328 
Q 422 3509 836 4129 
Q 1250 4750 2034 4750 
z
" transform="scale(0.015625)"/>
       </defs>
       <use xlink:href="#DejaVuSans-c9c"/>
       <use xlink:href="#DejaVuSans-14" transform="translate(83.796875 0)"/>
       <use xlink:href="#DejaVuSans-1b" transform="translate(147.421875 0)"/>
       <use xlink:href="#DejaVuSans-13" transform="translate(211.046875 0)"/>
      </g>
     </g>
    </g>
    <g id="xtick_2">
     <g id="line2d_7">
      <g>
       <use xlink:href="#md184c609d4" x="107.76717" y="198.835781" style="stroke: #000000; stroke-width: 0.8"/>
      </g>
     </g>
     <g id="text_2">
      <!-- −110 -->
      <g transform="translate(94.033576 213.433437) scale(0.1 -0.1)">
       <use xlink:href="#DejaVuSans-c9c"/>
       <use xlink:href="#DejaVuSans-14" transform="translate(83.796875 0)"/>
       <use xlink:href="#DejaVuSans-14" transform="translate(147.421875 0)"/>
       <use xlink:href="#DejaVuSans-13" transform="translate(211.046875 0)"/>
      </g>
     </g>
    </g>
    <g id="xtick_3">
     <g id="line2d_8">
      <g>
       <use xlink:href="#md184c609d4" x="160.914171" y="198.835781" style="stroke: #000000; stroke-width: 0.8"/>
      </g>
     </g>
     <g id="text_3">
      <!-- −30 -->
      <g transform="translate(150.361828 213.433437) scale(0.1 -0.1)">
       <defs>
        <path id="DejaVuSans-16" d="M 2597 2516 
Q 3050 2419 3304 2112 
Q 3559 1806 3559 1356 
Q 3559 666 3084 287 
Q 2609 -91 1734 -91 
Q 1441 -91 1130 -33 
Q 819 25 488 141 
L 488 750 
Q 750 597 1062 519 
Q 1375 441 1716 441 
Q 2309 441 2620 675 
Q 2931 909 2931 1356 
Q 2931 1769 2642 2001 
Q 2353 2234 1838 2234 
L 1294 2234 
L 1294 2753 
L 1863 2753 
Q 2328 2753 2575 2939 
Q 2822 3125 2822 3475 
Q 2822 3834 2567 4026 
Q 2313 4219 1838 4219 
Q 1578 4219 1281 4162 
Q 984 4106 628 3988 
L 628 4550 
Q 988 4650 1302 4700 
Q 1616 4750 1894 4750 
Q 2613 4750 3031 4423 
Q 3450 4097 3450 3541 
Q 3450 3153 3228 2886 
Q 3006 2619 2597 2516 
z
" transform="scale(0.015625)"/>
       </defs>
       <use xlink:href="#DejaVuSans-c9c"/>
       <use xlink:href="#DejaVuSans-16" transform="translate(83.796875 0)"/>
       <use xlink:href="#DejaVuSans-13" transform="translate(147.421875 0)"/>
      </g>
     </g>
    </g>
    <g id="xtick_4">
     <g id="line2d_9">
      <g>
       <use xlink:href="#md184c609d4" x="180.844297" y="198.835781" style="stroke: #000000; stroke-width: 0.8"/>
      </g>
     </g>
     <g id="text_4">
      <!-- 0 -->
      <g transform="translate(177.663047 213.433437) scale(0.1 -0.1)">
       <use xlink:href="#DejaVuSans-13"/>
      </g>
     </g>
    </g>
    <g id="xtick_5">
     <g id="line2d_10">
      <g>
       <use xlink:href="#md184c609d4" x="200.774422" y="198.835781" style="stroke: #000000; stroke-width: 0.8"/>
      </g>
     </g>
     <g id="text_5">
      <!-- 30 -->
      <g transform="translate(194.411922 213.433437) scale(0.1 -0.1)">
       <use xlink:href="#DejaVuSans-16"/>
       <use xlink:href="#DejaVuSans-13" transform="translate(63.625 0)"/>
      </g>
     </g>
    </g>
    <g id="xtick_6">
     <g id="line2d_11">
      <g>
       <use xlink:href="#md184c609d4" x="253.921424" y="198.835781" style="stroke: #000000; stroke-width: 0.8"/>
      </g>
     </g>
     <g id="text_6">
      <!-- 110 -->
      <g transform="translate(244.377674 213.433437) scale(0.1 -0.1)">
       <use xlink:href="#DejaVuSans-14"/>
       <use xlink:href="#DejaVuSans-14" transform="translate(63.625 0)"/>
       <use xlink:href="#DejaVuSans-13" transform="translate(127.25 0)"/>
      </g>
     </g>
    </g>
    <g id="xtick_7">
     <g id="line2d_12">
      <g>
       <use xlink:href="#md184c609d4" x="300.42505" y="198.835781" style="stroke: #000000; stroke-width: 0.8"/>
      </g>
     </g>
     <g id="text_7">
      <!-- 180 -->
      <g transform="translate(290.8813 213.433437) scale(0.1 -0.1)">
       <use xlink:href="#DejaVuSans-14"/>
       <use xlink:href="#DejaVuSans-1b" transform="translate(63.625 0)"/>
       <use xlink:href="#DejaVuSans-13" transform="translate(127.25 0)"/>
      </g>
     </g>
    </g>
    <g id="text_8">
     <!-- source azimuth (°) — vertical lines: the five speakers -->
     <g transform="translate(48.161484 227.434219) scale(0.1 -0.1)">
      <defs>
       <path id="DejaVuSans-56" d="M 2834 3397 
L 2834 2853 
Q 2591 2978 2328 3040 
Q 2066 3103 1784 3103 
Q 1356 3103 1142 2972 
Q 928 2841 928 2578 
Q 928 2378 1081 2264 
Q 1234 2150 1697 2047 
L 1894 2003 
Q 2506 1872 2764 1633 
Q 3022 1394 3022 966 
Q 3022 478 2636 193 
Q 2250 -91 1575 -91 
Q 1294 -91 989 -36 
Q 684 19 347 128 
L 347 722 
Q 666 556 975 473 
Q 1284 391 1588 391 
Q 1994 391 2212 530 
Q 2431 669 2431 922 
Q 2431 1156 2273 1281 
Q 2116 1406 1581 1522 
L 1381 1569 
Q 847 1681 609 1914 
Q 372 2147 372 2553 
Q 372 3047 722 3315 
Q 1072 3584 1716 3584 
Q 2034 3584 2315 3537 
Q 2597 3491 2834 3397 
z
" transform="scale(0.015625)"/>
       <path id="DejaVuSans-52" d="M 1959 3097 
Q 1497 3097 1228 2736 
Q 959 2375 959 1747 
Q 959 1119 1226 758 
Q 1494 397 1959 397 
Q 2419 397 2687 759 
Q 2956 1122 2956 1747 
Q 2956 2369 2687 2733 
Q 2419 3097 1959 3097 
z
M 1959 3584 
Q 2709 3584 3137 3096 
Q 3566 2609 3566 1747 
Q 3566 888 3137 398 
Q 2709 -91 1959 -91 
Q 1206 -91 779 398 
Q 353 888 353 1747 
Q 353 2609 779 3096 
Q 1206 3584 1959 3584 
z
" transform="scale(0.015625)"/>
       <path id="DejaVuSans-58" d="M 544 1381 
L 544 3500 
L 1119 3500 
L 1119 1403 
Q 1119 906 1312 657 
Q 1506 409 1894 409 
Q 2359 409 2629 706 
Q 2900 1003 2900 1516 
L 2900 3500 
L 3475 3500 
L 3475 0 
L 2900 0 
L 2900 538 
Q 2691 219 2414 64 
Q 2138 -91 1772 -91 
Q 1169 -91 856 284 
Q 544 659 544 1381 
z
M 1991 3584 
L 1991 3584 
z
" transform="scale(0.015625)"/>
       <path id="DejaVuSans-55" d="M 2631 2963 
Q 2534 3019 2420 3045 
Q 2306 3072 2169 3072 
Q 1681 3072 1420 2755 
Q 1159 2438 1159 1844 
L 1159 0 
L 581 0 
L 581 3500 
L 1159 3500 
L 1159 2956 
Q 1341 3275 1631 3429 
Q 1922 3584 2338 3584 
Q 2397 3584 2469 3576 
Q 2541 3569 2628 3553 
L 2631 2963 
z
" transform="scale(0.015625)"/>
       <path id="DejaVuSans-46" d="M 3122 3366 
L 3122 2828 
Q 2878 2963 2633 3030 
Q 2388 3097 2138 3097 
Q 1578 3097 1268 2742 
Q 959 2388 959 1747 
Q 959 1106 1268 751 
Q 1578 397 2138 397 
Q 2388 397 2633 464 
Q 2878 531 3122 666 
L 3122 134 
Q 2881 22 2623 -34 
Q 2366 -91 2075 -91 
Q 1284 -91 818 406 
Q 353 903 353 1747 
Q 353 2603 823 3093 
Q 1294 3584 2113 3584 
Q 2378 3584 2631 3529 
Q 2884 3475 3122 3366 
z
" transform="scale(0.015625)"/>
       <path id="DejaVuSans-48" d="M 3597 1894 
L 3597 1613 
L 953 1613 
Q 991 1019 1311 708 
Q 1631 397 2203 397 
Q 2534 397 2845 478 
Q 3156 559 3463 722 
L 3463 178 
Q 3153 47 2828 -22 
Q 2503 -91 2169 -91 
Q 1331 -91 842 396 
Q 353 884 353 1716 
Q 353 2575 817 3079 
Q 1281 3584 2069 3584 
Q 2775 3584 3186 3129 
Q 3597 2675 3597 1894 
z
M 3022 2063 
Q 3016 2534 2758 2815 
Q 2500 3097 2075 3097 
Q 1594 3097 1305 2825 
Q 1016 2553 972 2059 
L 3022 2063 
z
" transform="scale(0.015625)"/>
       <path id="DejaVuSans-3" transform="scale(0.015625)"/>
       <path id="DejaVuSans-44" d="M 2194 1759 
Q 1497 1759 1228 1600 
Q 959 1441 959 1056 
Q 959 750 1161 570 
Q 1363 391 1709 391 
Q 2188 391 2477 730 
Q 2766 1069 2766 1631 
L 2766 1759 
L 2194 1759 
z
M 3341 1997 
L 3341 0 
L 2766 0 
L 2766 531 
Q 2569 213 2275 61 
Q 1981 -91 1556 -91 
Q 1019 -91 701 211 
Q 384 513 384 1019 
Q 384 1609 779 1909 
Q 1175 2209 1959 2209 
L 2766 2209 
L 2766 2266 
Q 2766 2663 2505 2880 
Q 2244 3097 1772 3097 
Q 1472 3097 1187 3025 
Q 903 2953 641 2809 
L 641 3341 
Q 956 3463 1253 3523 
Q 1550 3584 1831 3584 
Q 2591 3584 2966 3190 
Q 3341 2797 3341 1997 
z
" transform="scale(0.015625)"/>
       <path id="DejaVuSans-5d" d="M 353 3500 
L 3084 3500 
L 3084 2975 
L 922 459 
L 3084 459 
L 3084 0 
L 275 0 
L 275 525 
L 2438 3041 
L 353 3041 
L 353 3500 
z
" transform="scale(0.015625)"/>
       <path id="DejaVuSans-4c" d="M 603 3500 
L 1178 3500 
L 1178 0 
L 603 0 
L 603 3500 
z
M 603 4863 
L 1178 4863 
L 1178 4134 
L 603 4134 
L 603 4863 
z
" transform="scale(0.015625)"/>
       <path id="DejaVuSans-50" d="M 3328 2828 
Q 3544 3216 3844 3400 
Q 4144 3584 4550 3584 
Q 5097 3584 5394 3201 
Q 5691 2819 5691 2113 
L 5691 0 
L 5113 0 
L 5113 2094 
Q 5113 2597 4934 2840 
Q 4756 3084 4391 3084 
Q 3944 3084 3684 2787 
Q 3425 2491 3425 1978 
L 3425 0 
L 2847 0 
L 2847 2094 
Q 2847 2600 2669 2842 
Q 2491 3084 2119 3084 
Q 1678 3084 1418 2786 
Q 1159 2488 1159 1978 
L 1159 0 
L 581 0 
L 581 3500 
L 1159 3500 
L 1159 2956 
Q 1356 3278 1631 3431 
Q 1906 3584 2284 3584 
Q 2666 3584 2933 3390 
Q 3200 3197 3328 2828 
z
" transform="scale(0.015625)"/>
       <path id="DejaVuSans-57" d="M 1172 4494 
L 1172 3500 
L 2356 3500 
L 2356 3053 
L 1172 3053 
L 1172 1153 
Q 1172 725 1289 603 
Q 1406 481 1766 481 
L 2356 481 
L 2356 0 
L 1766 0 
Q 1100 0 847 248 
Q 594 497 594 1153 
L 594 3053 
L 172 3053 
L 172 3500 
L 594 3500 
L 594 4494 
L 1172 4494 
z
" transform="scale(0.015625)"/>
       <path id="DejaVuSans-4b" d="M 3513 2113 
L 3513 0 
L 2938 0 
L 2938 2094 
Q 2938 2591 2744 2837 
Q 2550 3084 2163 3084 
Q 1697 3084 1428 2787 
Q 1159 2491 1159 1978 
L 1159 0 
L 581 0 
L 581 4863 
L 1159 4863 
L 1159 2956 
Q 1366 3272 1645 3428 
Q 1925 3584 2291 3584 
Q 2894 3584 3203 3211 
Q 3513 2838 3513 2113 
z
" transform="scale(0.015625)"/>
       <path id="DejaVuSans-b" d="M 1984 4856 
Q 1566 4138 1362 3434 
Q 1159 2731 1159 2009 
Q 1159 1288 1364 580 
Q 1569 -128 1984 -844 
L 1484 -844 
Q 1016 -109 783 600 
Q 550 1309 550 2009 
Q 550 2706 781 3412 
Q 1013 4119 1484 4856 
L 1984 4856 
z
" transform="scale(0.015625)"/>
       <path id="DejaVuSans-72" d="M 1600 4347 
Q 1350 4347 1178 4173 
Q 1006 4000 1006 3750 
Q 1006 3503 1178 3333 
Q 1350 3163 1600 3163 
Q 1850 3163 2022 3333 
Q 2194 3503 2194 3750 
Q 2194 3997 2020 4172 
Q 1847 4347 1600 4347 
z
M 1600 4750 
Q 1800 4750 1984 4673 
Q 2169 4597 2303 4453 
Q 2447 4313 2519 4134 
Q 2591 3956 2591 3750 
Q 2591 3338 2302 3052 
Q 2013 2766 1594 2766 
Q 1172 2766 890 3047 
Q 609 3328 609 3750 
Q 609 4169 896 4459 
Q 1184 4750 1600 4750 
z
" transform="scale(0.015625)"/>
       <path id="DejaVuSans-c" d="M 513 4856 
L 1013 4856 
Q 1481 4119 1714 3412 
Q 1947 2706 1947 2009 
Q 1947 1309 1714 600 
Q 1481 -109 1013 -844 
L 513 -844 
Q 928 -128 1133 580 
Q 1338 1288 1338 2009 
Q 1338 2731 1133 3434 
Q 928 4138 513 4856 
z
" transform="scale(0.015625)"/>
       <path id="DejaVuSans-af6" d="M 313 1978 
L 6088 1978 
L 6088 1528 
L 313 1528 
L 313 1978 
z
" transform="scale(0.015625)"/>
       <path id="DejaVuSans-59" d="M 191 3500 
L 800 3500 
L 1894 563 
L 2988 3500 
L 3597 3500 
L 2284 0 
L 1503 0 
L 191 3500 
z
" transform="scale(0.015625)"/>
       <path id="DejaVuSans-4f" d="M 603 4863 
L 1178 4863 
L 1178 0 
L 603 0 
L 603 4863 
z
" transform="scale(0.015625)"/>
       <path id="DejaVuSans-51" d="M 3513 2113 
L 3513 0 
L 2938 0 
L 2938 2094 
Q 2938 2591 2744 2837 
Q 2550 3084 2163 3084 
Q 1697 3084 1428 2787 
Q 1159 2491 1159 1978 
L 1159 0 
L 581 0 
L 581 3500 
L 1159 3500 
L 1159 2956 
Q 1366 3272 1645 3428 
Q 1925 3584 2291 3584 
Q 2894 3584 3203 3211 
Q 3513 2838 3513 2113 
z
" transform="scale(0.015625)"/>
       <path id="DejaVuSans-1d" d="M 750 794 
L 1409 794 
L 1409 0 
L 750 0 
L 750 794 
z
M 750 3309 
L 1409 3309 
L 1409 2516 
L 750 2516 
L 750 3309 
z
" transform="scale(0.015625)"/>
       <path id="DejaVuSans-13af" d="M 3431 3500 
L 3431 0 
L 2853 0 
L 2853 3053 
L 1275 3053 
L 1275 0 
L 697 0 
L 697 3053 
L 147 3053 
L 147 3500 
L 697 3500 
L 697 3744 
Q 697 4316 967 4589 
Q 1238 4863 1797 4863 
L 2375 4863 
L 2375 4384 
L 1825 4384 
Q 1516 4384 1395 4259 
Q 1275 4134 1275 3809 
L 1275 3500 
L 3431 3500 
z
M 2853 4856 
L 3431 4856 
L 3431 4128 
L 2853 4128 
L 2853 4856 
z
" transform="scale(0.015625)"/>
       <path id="DejaVuSans-53" d="M 1159 525 
L 1159 -1331 
L 581 -1331 
L 581 3500 
L 1159 3500 
L 1159 2969 
Q 1341 3281 1617 3432 
Q 1894 3584 2278 3584 
Q 2916 3584 3314 3078 
Q 3713 2572 3713 1747 
Q 3713 922 3314 415 
Q 2916 -91 2278 -91 
Q 1894 -91 1617 61 
Q 1341 213 1159 525 
z
M 3116 1747 
Q 3116 2381 2855 2742 
Q 2594 3103 2138 3103 
Q 1681 3103 1420 2742 
Q 1159 2381 1159 1747 
Q 1159 1113 1420 752 
Q 1681 391 2138 391 
Q 2594 391 2855 752 
Q 3116 1113 3116 1747 
z
" transform="scale(0.015625)"/>
       <path id="DejaVuSans-4e" d="M 581 4863 
L 1159 4863 
L 1159 1991 
L 2875 3500 
L 3609 3500 
L 1753 1863 
L 3688 0 
L 2938 0 
L 1159 1709 
L 1159 0 
L 581 0 
L 581 4863 
z
" transform="scale(0.015625)"/>
      </defs>
      <use xlink:href="#DejaVuSans-56"/>
      <use xlink:href="#DejaVuSans-52" transform="translate(52.09375 0)"/>
      <use xlink:href="#DejaVuSans-58" transform="translate(113.28125 0)"/>
      <use xlink:href="#DejaVuSans-55" transform="translate(176.65625 0)"/>
      <use xlink:href="#DejaVuSans-46" transform="translate(215.5625 0)"/>
      <use xlink:href="#DejaVuSans-48" transform="translate(270.546875 0)"/>
      <use xlink:href="#DejaVuSans-3" transform="translate(332.078125 0)"/>
      <use xlink:href="#DejaVuSans-44" transform="translate(363.859375 0)"/>
      <use xlink:href="#DejaVuSans-5d" transform="translate(425.140625 0)"/>
      <use xlink:href="#DejaVuSans-4c" transform="translate(477.625 0)"/>
      <use xlink:href="#DejaVuSans-50" transform="translate(505.40625 0)"/>
      <use xlink:href="#DejaVuSans-58" transform="translate(602.8125 0)"/>
      <use xlink:href="#DejaVuSans-57" transform="translate(666.1875 0)"/>
      <use xlink:href="#DejaVuSans-4b" transform="translate(705.390625 0)"/>
      <use xlink:href="#DejaVuSans-3" transform="translate(768.765625 0)"/>
      <use xlink:href="#DejaVuSans-b" transform="translate(800.546875 0)"/>
      <use xlink:href="#DejaVuSans-72" transform="translate(839.5625 0)"/>
      <use xlink:href="#DejaVuSans-c" transform="translate(889.5625 0)"/>
      <use xlink:href="#DejaVuSans-3" transform="translate(928.578125 0)"/>
      <use xlink:href="#DejaVuSans-af6" transform="translate(960.359375 0)"/>
      <use xlink:href="#DejaVuSans-3" transform="translate(1060.359375 0)"/>
      <use xlink:href="#DejaVuSans-59" transform="translate(1092.140625 0)"/>
      <use xlink:href="#DejaVuSans-48" transform="translate(1151.328125 0)"/>
      <use xlink:href="#DejaVuSans-55" transform="translate(1212.859375 0)"/>
      <use xlink:href="#DejaVuSans-57" transform="translate(1253.96875 0)"/>
      <use xlink:href="#DejaVuSans-4c" transform="translate(1293.171875 0)"/>
      <use xlink:href="#DejaVuSans-46" transform="translate(1320.953125 0)"/>
      <use xlink:href="#DejaVuSans-44" transform="translate(1375.9375 0)"/>
      <use xlink:href="#DejaVuSans-4f" transform="translate(1437.21875 0)"/>
      <use xlink:href="#DejaVuSans-3" transform="translate(1465 0)"/>
      <use xlink:href="#DejaVuSans-4f" transform="translate(1496.78125 0)"/>
      <use xlink:href="#DejaVuSans-4c" transform="translate(1524.5625 0)"/>
      <use xlink:href="#DejaVuSans-51" transform="translate(1552.34375 0)"/>
      <use xlink:href="#DejaVuSans-48" transform="translate(1615.71875 0)"/>
      <use xlink:href="#DejaVuSans-56" transform="translate(1677.25 0)"/>
      <use xlink:href="#DejaVuSans-1d" transform="translate(1729.34375 0)"/>
      <use xlink:href="#DejaVuSans-3" transform="translate(1763.03125 0)"/>
      <use xlink:href="#DejaVuSans-57" transform="translate(1794.8125 0)"/>
      <use xlink:href="#DejaVuSans-4b" transform="translate(1834.015625 0)"/>
      <use xlink:href="#DejaVuSans-48" transform="translate(1897.390625 0)"/>
      <use xlink:href="#DejaVuSans-3" transform="translate(1958.921875 0)"/>
      <use xlink:href="#DejaVuSans-13af" transform="translate(1990.703125 0)"/>
      <use xlink:href="#DejaVuSans-59" transform="translate(2053.6875 0)"/>
      <use xlink:href="#DejaVuSans-48" transform="translate(2112.875 0)"/>
      <use xlink:href="#DejaVuSans-3" transform="translate(2174.40625 0)"/>
      <use xlink:href="#DejaVuSans-56" transform="translate(2206.1875 0)"/>
      <use xlink:href="#DejaVuSans-53" transform="translate(2258.28125 0)"/>
      <use xlink:href="#DejaVuSans-48" transform="translate(2321.765625 0)"/>
      <use xlink:href="#DejaVuSans-44" transform="translate(2383.296875 0)"/>
      <use xlink:href="#DejaVuSans-4e" transform="translate(2444.578125 0)"/>
      <use xlink:href="#DejaVuSans-48" transform="translate(2498.921875 0)"/>
      <use xlink:href="#DejaVuSans-55" transform="translate(2560.453125 0)"/>
      <use xlink:href="#DejaVuSans-56" transform="translate(2601.5625 0)"/>
     </g>
    </g>
   </g>
   <g id="matplotlib.axis_2">
    <g id="ytick_1">
     <g id="line2d_13">
      <defs>
       <path id="m895ca69d98" d="M 0 0 
L -3.5 0 
" style="stroke: #000000; stroke-width: 0.8"/>
      </defs>
      <g>
       <use xlink:href="#m895ca69d98" x="49.305469" y="181.364151" style="stroke: #000000; stroke-width: 0.8"/>
      </g>
     </g>
     <g id="text_9">
      <!-- −15 -->
      <g transform="translate(21.200781 185.162979) scale(0.1 -0.1)">
       <defs>
        <path id="DejaVuSans-18" d="M 691 4666 
L 3169 4666 
L 3169 4134 
L 1269 4134 
L 1269 2991 
Q 1406 3038 1543 3061 
Q 1681 3084 1819 3084 
Q 2600 3084 3056 2656 
Q 3513 2228 3513 1497 
Q 3513 744 3044 326 
Q 2575 -91 1722 -91 
Q 1428 -91 1123 -41 
Q 819 9 494 109 
L 494 744 
Q 775 591 1075 516 
Q 1375 441 1709 441 
Q 2250 441 2565 725 
Q 2881 1009 2881 1497 
Q 2881 1984 2565 2268 
Q 2250 2553 1709 2553 
Q 1456 2553 1204 2497 
Q 953 2441 691 2322 
L 691 4666 
z
" transform="scale(0.015625)"/>
       </defs>
       <use xlink:href="#DejaVuSans-c9c"/>
       <use xlink:href="#DejaVuSans-14" transform="translate(83.796875 0)"/>
       <use xlink:href="#DejaVuSans-18" transform="translate(147.421875 0)"/>
      </g>
     </g>
    </g>
    <g id="ytick_2">
     <g id="line2d_14">
      <g>
       <use xlink:href="#m895ca69d98" x="49.305469" y="141.371208" style="stroke: #000000; stroke-width: 0.8"/>
      </g>
     </g>
     <g id="text_10">
      <!-- −10 -->
      <g transform="translate(21.200781 145.170036) scale(0.1 -0.1)">
       <use xlink:href="#DejaVuSans-c9c"/>
       <use xlink:href="#DejaVuSans-14" transform="translate(83.796875 0)"/>
       <use xlink:href="#DejaVuSans-13" transform="translate(147.421875 0)"/>
      </g>
     </g>
    </g>
    <g id="ytick_3">
     <g id="line2d_15">
      <g>
       <use xlink:href="#m895ca69d98" x="49.305469" y="101.378265" style="stroke: #000000; stroke-width: 0.8"/>
      </g>
     </g>
     <g id="text_11">
      <!-- −5 -->
      <g transform="translate(27.563281 105.177093) scale(0.1 -0.1)">
       <use xlink:href="#DejaVuSans-c9c"/>
       <use xlink:href="#DejaVuSans-18" transform="translate(83.796875 0)"/>
      </g>
     </g>
    </g>
    <g id="ytick_4">
     <g id="line2d_16">
      <g>
       <use xlink:href="#m895ca69d98" x="49.305469" y="61.385322" style="stroke: #000000; stroke-width: 0.8"/>
      </g>
     </g>
     <g id="text_12">
      <!-- 0 -->
      <g transform="translate(35.942969 65.18415) scale(0.1 -0.1)">
       <use xlink:href="#DejaVuSans-13"/>
      </g>
     </g>
    </g>
    <g id="text_13">
     <!-- energy re. mean (dB) -->
     <g transform="translate(14.798438 164.064453) rotate(-90) scale(0.1 -0.1)">
      <defs>
       <path id="DejaVuSans-4a" d="M 2906 1791 
Q 2906 2416 2648 2759 
Q 2391 3103 1925 3103 
Q 1463 3103 1205 2759 
Q 947 2416 947 1791 
Q 947 1169 1205 825 
Q 1463 481 1925 481 
Q 2391 481 2648 825 
Q 2906 1169 2906 1791 
z
M 3481 434 
Q 3481 -459 3084 -895 
Q 2688 -1331 1869 -1331 
Q 1566 -1331 1297 -1286 
Q 1028 -1241 775 -1147 
L 775 -588 
Q 1028 -725 1275 -790 
Q 1522 -856 1778 -856 
Q 2344 -856 2625 -561 
Q 2906 -266 2906 331 
L 2906 616 
Q 2728 306 2450 153 
Q 2172 0 1784 0 
Q 1141 0 747 490 
Q 353 981 353 1791 
Q 353 2603 747 3093 
Q 1141 3584 1784 3584 
Q 2172 3584 2450 3431 
Q 2728 3278 2906 2969 
L 2906 3500 
L 3481 3500 
L 3481 434 
z
" transform="scale(0.015625)"/>
       <path id="DejaVuSans-5c" d="M 2059 -325 
Q 1816 -950 1584 -1140 
Q 1353 -1331 966 -1331 
L 506 -1331 
L 506 -850 
L 844 -850 
Q 1081 -850 1212 -737 
Q 1344 -625 1503 -206 
L 1606 56 
L 191 3500 
L 800 3500 
L 1894 763 
L 2988 3500 
L 3597 3500 
L 2059 -325 
z
" transform="scale(0.015625)"/>
       <path id="DejaVuSans-11" d="M 684 794 
L 1344 794 
L 1344 0 
L 684 0 
L 684 794 
z
" transform="scale(0.015625)"/>
       <path id="DejaVuSans-47" d="M 2906 2969 
L 2906 4863 
L 3481 4863 
L 3481 0 
L 2906 0 
L 2906 525 
Q 2725 213 2448 61 
Q 2172 -91 1784 -91 
Q 1150 -91 751 415 
Q 353 922 353 1747 
Q 353 2572 751 3078 
Q 1150 3584 1784 3584 
Q 2172 3584 2448 3432 
Q 2725 3281 2906 2969 
z
M 947 1747 
Q 947 1113 1208 752 
Q 1469 391 1925 391 
Q 2381 391 2643 752 
Q 2906 1113 2906 1747 
Q 2906 2381 2643 2742 
Q 2381 3103 1925 3103 
Q 1469 3103 1208 2742 
Q 947 2381 947 1747 
z
" transform="scale(0.015625)"/>
       <path id="DejaVuSans-25" d="M 1259 2228 
L 1259 519 
L 2272 519 
Q 2781 519 3026 730 
Q 3272 941 3272 1375 
Q 3272 1813 3026 2020 
Q 2781 2228 2272 2228 
L 1259 2228 
z
M 1259 4147 
L 1259 2741 
L 2194 2741 
Q 2656 2741 2882 2914 
Q 3109 3088 3109 3444 
Q 3109 3797 2882 3972 
Q 2656 4147 2194 4147 
L 1259 4147 
z
M 628 4666 
L 2241 4666 
Q 2963 4666 3353 4366 
Q 3744 4066 3744 3513 
Q 3744 3084 3544 2831 
Q 3344 2578 2956 2516 
Q 3422 2416 3680 2098 
Q 3938 1781 3938 1306 
Q 3938 681 3513 340 
Q 3088 0 2303 0 
L 628 0 
L 628 4666 
z
" transform="scale(0.015625)"/>
      </defs>
      <use xlink:href="#DejaVuSans-48"/>
      <use xlink:href="#DejaVuSans-51" transform="translate(61.53125 0)"/>
      <use xlink:href="#DejaVuSans-48" transform="translate(124.90625 0)"/>
      <use xlink:href="#DejaVuSans-55" transform="translate(186.4375 0)"/>
      <use xlink:href="#DejaVuSans-4a" transform="translate(225.796875 0)"/>
      <use xlink:href="#DejaVuSans-5c" transform="translate(289.28125 0)"/>
      <use xlink:href="#DejaVuSans-3" transform="translate(348.46875 0)"/>
      <use xlink:href="#DejaVuSans-55" transform="translate(380.25 0)"/>
      <use xlink:href="#DejaVuSans-48" transform="translate(419.15625 0)"/>
      <use xlink:href="#DejaVuSans-11" transform="translate(480.6875 0)"/>
      <use xlink:href="#DejaVuSans-3" transform="translate(512.46875 0)"/>
      <use xlink:href="#DejaVuSans-50" transform="translate(544.25 0)"/>
      <use xlink:href="#DejaVuSans-48" transform="translate(641.65625 0)"/>
      <use xlink:href="#DejaVuSans-44" transform="translate(703.1875 0)"/>
      <use xlink:href="#DejaVuSans-51" transform="translate(764.46875 0)"/>
      <use xlink:href="#DejaVuSans-3" transform="translate(827.84375 0)"/>
      <use xlink:href="#DejaVuSans-b" transform="translate(859.625 0)"/>
      <use xlink:href="#DejaVuSans-47" transform="translate(898.640625 0)"/>
      <use xlink:href="#DejaVuSans-25" transform="translate(962.125 0)"/>
      <use xlink:href="#DejaVuSans-c" transform="translate(1030.734375 0)"/>
     </g>
    </g>
   </g>
   <g id="line2d_17">
    <path d="M 61.263544 151.021604 
L 63.256557 150.872842 
L 64.585232 150.582427 
L 65.913907 150.087588 
L 67.242582 149.32595 
L 68.571257 148.229006 
L 69.899932 146.734183 
L 71.228607 144.796964 
L 72.557282 142.401002 
L 73.885957 139.562803 
L 75.878969 134.586997 
L 78.536319 127.017249 
L 85.844032 105.442283 
L 88.501382 98.460231 
L 91.158732 92.145542 
L 93.816082 86.459072 
L 96.473432 81.297553 
L 99.79512 75.371826 
L 105.10982 66.45605 
L 117.732233 45.71487 
L 120.389583 41.820523 
L 123.046933 38.340775 
L 125.039946 36.068326 
L 127.032958 34.129709 
L 129.025971 32.559689 
L 130.354646 31.732818 
L 131.683321 31.091051 
L 133.011996 30.641523 
L 134.340671 30.390703 
L 135.669346 30.344456 
L 136.998021 30.508154 
L 138.326696 30.886685 
L 139.655371 31.484474 
L 140.984046 32.305488 
L 142.312721 33.353197 
L 143.641396 34.630487 
L 144.970071 36.139534 
L 146.963084 38.840121 
L 148.956096 42.063715 
L 150.949109 45.80021 
L 152.942121 50.025898 
L 155.599471 56.341653 
L 158.921159 65.049001 
L 163.571521 77.475811 
L 165.564534 82.260052 
L 167.557547 86.362735 
L 168.886222 88.627924 
L 170.214897 90.486186 
L 171.543572 91.941919 
L 172.872247 93.025746 
L 174.200922 93.788627 
L 175.529597 94.293024 
L 176.858272 94.603638 
L 178.851284 94.830699 
L 181.508634 94.883729 
L 184.165984 94.704962 
L 186.158997 94.29302 
L 187.487672 93.78862 
L 188.816347 93.025746 
L 190.145022 91.941915 
L 191.473697 90.486193 
L 192.802372 88.627928 
L 194.131047 86.362749 
L 195.459722 83.714035 
L 197.452735 79.131942 
L 200.110085 72.254517 
L 206.089122 56.341667 
L 208.746473 50.025923 
L 210.739485 45.800221 
L 212.732498 42.06373 
L 214.72551 38.840121 
L 216.718523 36.13954 
L 218.047198 34.630496 
L 219.375873 33.353208 
L 220.704548 32.305494 
L 222.033223 31.48448 
L 223.361898 30.886685 
L 224.690573 30.508156 
L 226.019248 30.344454 
L 227.347923 30.390699 
L 228.676598 30.641521 
L 230.005273 31.091046 
L 231.333948 31.732805 
L 232.662623 32.559685 
L 234.655636 34.129698 
L 236.648648 36.068305 
L 238.641661 38.340762 
L 240.634673 40.907263 
L 243.292023 44.708758 
L 246.613711 49.905172 
L 252.592749 59.819797 
L 263.886486 78.87104 
L 266.543836 83.820795 
L 269.201186 89.229095 
L 271.858537 95.220008 
L 274.515887 101.86879 
L 277.173237 109.169344 
L 280.494924 118.996902 
L 285.145287 132.77336 
L 287.138299 137.991616 
L 288.466974 141.034856 
L 289.795649 143.656045 
L 291.124324 145.822624 
L 292.453 147.534701 
L 293.781675 148.823597 
L 295.11035 149.744372 
L 296.439025 150.364181 
L 297.7677 150.749817 
L 299.096375 150.956804 
L 300.42505 151.021597 
L 300.42505 151.021597 
" clip-path="url(#p2c8c7adc11)" style="fill: none; stroke: #4269d0; stroke-width: 1.6; stroke-linecap: square"/>
   </g>
   <g id="line2d_18">
    <path d="M 61.263544 54.599907 
L 67.242582 54.716873 
L 74.550294 55.101604 
L 101.788132 56.915582 
L 107.76717 57.638753 
L 126.368621 60.118526 
L 139.655371 61.46414 
L 142.977058 62.093539 
L 145.634409 62.784781 
L 148.291759 63.679246 
L 150.949109 64.802704 
L 153.606459 66.170756 
L 156.263809 67.785894 
L 158.921159 69.634167 
L 162.242846 72.218061 
L 172.207909 80.27249 
L 174.200922 81.532439 
L 176.193934 82.528209 
L 178.186947 83.204283 
L 179.515622 83.456657 
L 180.844297 83.54157 
L 182.172972 83.456657 
L 183.501647 83.204283 
L 185.494659 82.528205 
L 187.487672 81.532439 
L 189.480685 80.27249 
L 192.138035 78.292525 
L 196.788397 74.428621 
L 201.43876 70.635963 
L 204.760447 68.227069 
L 207.417798 66.551617 
L 210.075148 65.121444 
L 212.732498 63.937834 
L 215.389848 62.988185 
L 218.047198 62.249013 
L 221.368885 61.572282 
L 225.35491 61.025379 
L 231.998286 60.416351 
L 239.305998 59.693902 
L 245.949373 58.801787 
L 257.907449 57.134335 
L 263.886486 56.547878 
L 271.858537 56.021028 
L 298.432037 54.613338 
L 300.42505 54.599907 
L 300.42505 54.599907 
" clip-path="url(#p2c8c7adc11)" style="fill: none; stroke: #efb118; stroke-width: 1.6; stroke-linecap: square"/>
   </g>
   <g id="line2d_19">
    <path d="M 61.263544 190.812251 
L 61.927882 190.516893 
L 62.592219 189.642444 
L 63.256557 188.222132 
L 63.920894 186.306561 
L 65.249569 181.242758 
L 66.578244 174.979924 
L 68.571257 164.352321 
L 74.550294 131.718934 
L 77.207644 118.708642 
L 79.864994 106.969906 
L 81.858007 99.014092 
L 83.85102 91.770673 
L 85.844032 85.216512 
L 87.837045 79.324478 
L 89.830057 74.065734 
L 91.82307 69.411372 
L 93.816082 65.332942 
L 95.809095 61.802836 
L 97.802107 58.794146 
L 99.79512 56.280451 
L 101.788132 54.235468 
L 103.781145 52.632494 
L 105.10982 51.795831 
L 106.438495 51.134809 
L 107.76717 50.640441 
L 109.760183 50.190469 
L 111.753195 50.059367 
L 113.746208 50.208809 
L 115.73922 50.596259 
L 118.39657 51.401369 
L 121.718258 52.697329 
L 127.032958 54.835994 
L 129.690308 55.675473 
L 132.347658 56.240297 
L 134.340671 56.456454 
L 136.333683 56.491923 
L 138.991033 56.280015 
L 141.648383 55.824435 
L 144.970071 55.025715 
L 155.599471 52.266953 
L 159.585496 51.54045 
L 163.571521 51.03937 
L 168.221884 50.692975 
L 174.200922 50.498258 
L 183.501647 50.455099 
L 191.473697 50.603931 
L 196.788397 50.917248 
L 200.774422 51.349441 
L 204.760447 51.999057 
L 208.746473 52.875159 
L 214.061173 54.29747 
L 219.375873 55.680951 
L 222.033223 56.186254 
L 224.690573 56.465266 
L 226.683585 56.488006 
L 228.676598 56.332625 
L 230.669611 55.995917 
L 233.326961 55.2857 
L 235.984311 54.338004 
L 245.285036 50.770321 
L 247.278048 50.313741 
L 249.271061 50.080029 
L 251.264074 50.113166 
L 253.257086 50.452822 
L 254.585761 50.867374 
L 255.914436 51.443927 
L 257.243111 52.191681 
L 258.571786 53.119403 
L 259.900461 54.235464 
L 261.893474 56.280455 
L 263.886486 58.794146 
L 265.879499 61.802845 
L 267.872511 65.332942 
L 269.865524 69.411378 
L 271.858537 74.06574 
L 273.851549 79.324488 
L 275.844562 85.216512 
L 277.837574 91.770678 
L 279.830587 99.0141 
L 281.823599 106.96991 
L 283.816612 115.652571 
L 286.473962 128.351952 
L 289.131312 142.230744 
L 295.774687 178.229114 
L 297.103362 183.957695 
L 297.7677 186.306584 
L 298.432037 188.222148 
L 299.096375 189.64246 
L 299.760712 190.516909 
L 300.42505 190.812251 
L 300.42505 190.812251 
" clip-path="url(#p2c8c7adc11)" style="fill: none; stroke: #ff725c; stroke-width: 1.6; stroke-linecap: square"/>
   </g>
   <g id="patch_3">
    <path d="M 49.305469 198.835781 
L 49.305469 22.318125 
" style="fill: none; stroke: #000000; stroke-width: 0.8; stroke-linejoin: miter; stroke-linecap: square"/>
   </g>
   <g id="patch_4">
    <path d="M 49.305469 198.835781 
L 312.383125 198.835781 
" style="fill: none; stroke: #000000; stroke-width: 0.8; stroke-linejoin: miter; stroke-linecap: square"/>
   </g>
   <g id="text_14">
    <!-- Loudness around the circle -->
    <g transform="translate(99.955859 16.318125) scale(0.12 -0.12)">
     <defs>
      <path id="DejaVuSans-2f" d="M 628 4666 
L 1259 4666 
L 1259 531 
L 3531 531 
L 3531 0 
L 628 0 
L 628 4666 
z
" transform="scale(0.015625)"/>
     </defs>
     <use xlink:href="#DejaVuSans-2f"/>
     <use xlink:href="#DejaVuSans-52" transform="translate(53.96875 0)"/>
     <use xlink:href="#DejaVuSans-58" transform="translate(115.15625 0)"/>
     <use xlink:href="#DejaVuSans-47" transform="translate(178.53125 0)"/>
     <use xlink:href="#DejaVuSans-51" transform="translate(242.015625 0)"/>
     <use xlink:href="#DejaVuSans-48" transform="translate(305.390625 0)"/>
     <use xlink:href="#DejaVuSans-56" transform="translate(366.921875 0)"/>
     <use xlink:href="#DejaVuSans-56" transform="translate(419.015625 0)"/>
     <use xlink:href="#DejaVuSans-3" transform="translate(471.109375 0)"/>
     <use xlink:href="#DejaVuSans-44" transform="translate(502.890625 0)"/>
     <use xlink:href="#DejaVuSans-55" transform="translate(564.171875 0)"/>
     <use xlink:href="#DejaVuSans-52" transform="translate(603.078125 0)"/>
     <use xlink:href="#DejaVuSans-58" transform="translate(664.265625 0)"/>
     <use xlink:href="#DejaVuSans-51" transform="translate(727.640625 0)"/>
     <use xlink:href="#DejaVuSans-47" transform="translate(791.015625 0)"/>
     <use xlink:href="#DejaVuSans-3" transform="translate(854.5 0)"/>
     <use xlink:href="#DejaVuSans-57" transform="translate(886.28125 0)"/>
     <use xlink:href="#DejaVuSans-4b" transform="translate(925.484375 0)"/>
     <use xlink:href="#DejaVuSans-48" transform="translate(988.859375 0)"/>
     <use xlink:href="#DejaVuSans-3" transform="translate(1050.390625 0)"/>
     <use xlink:href="#DejaVuSans-46" transform="translate(1082.171875 0)"/>
     <use xlink:href="#DejaVuSans-4c" transform="translate(1137.15625 0)"/>
     <use xlink:href="#DejaVuSans-55" transform="translate(1164.9375 0)"/>
     <use xlink:href="#DejaVuSans-46" transform="translate(1203.84375 0)"/>
     <use xlink:href="#DejaVuSans-4f" transform="translate(1258.828125 0)"/>
     <use xlink:href="#DejaVuSans-48" transform="translate(1286.609375 0)"/>
    </g>
   </g>
   <g id="legend_1">
    <g id="line2d_20">
     <path d="M 143.649922 162.912656 
L 151.649922 162.912656 
L 159.649922 162.912656 
" style="fill: none; stroke: #4269d0; stroke-width: 1.6; stroke-linecap: square"/>
    </g>
    <g id="text_15">
     <!-- mode_match -->
     <g transform="translate(166.049922 165.712656) scale(0.08 -0.08)">
      <defs>
       <path id="DejaVuSans-42" d="M 3263 -1063 
L 3263 -1509 
L -63 -1509 
L -63 -1063 
L 3263 -1063 
z
" transform="scale(0.015625)"/>
      </defs>
      <use xlink:href="#DejaVuSans-50"/>
      <use xlink:href="#DejaVuSans-52" transform="translate(97.40625 0)"/>
      <use xlink:href="#DejaVuSans-47" transform="translate(158.59375 0)"/>
      <use xlink:href="#DejaVuSans-48" transform="translate(222.078125 0)"/>
      <use xlink:href="#DejaVuSans-42" transform="translate(283.609375 0)"/>
      <use xlink:href="#DejaVuSans-50" transform="translate(333.609375 0)"/>
      <use xlink:href="#DejaVuSans-44" transform="translate(431.015625 0)"/>
      <use xlink:href="#DejaVuSans-57" transform="translate(492.296875 0)"/>
      <use xlink:href="#DejaVuSans-46" transform="translate(531.5 0)"/>
      <use xlink:href="#DejaVuSans-4b" transform="translate(586.484375 0)"/>
     </g>
    </g>
    <g id="line2d_21">
     <path d="M 143.649922 174.913281 
L 151.649922 174.913281 
L 159.649922 174.913281 
" style="fill: none; stroke: #efb118; stroke-width: 1.6; stroke-linecap: square"/>
    </g>
    <g id="text_16">
     <!-- allrad -->
     <g transform="translate(166.049922 177.713281) scale(0.08 -0.08)">
      <use xlink:href="#DejaVuSans-44"/>
      <use xlink:href="#DejaVuSans-4f" transform="translate(61.28125 0)"/>
      <use xlink:href="#DejaVuSans-4f" transform="translate(89.0625 0)"/>
      <use xlink:href="#DejaVuSans-55" transform="translate(116.84375 0)"/>
      <use xlink:href="#DejaVuSans-44" transform="translate(157.953125 0)"/>
      <use xlink:href="#DejaVuSans-47" transform="translate(219.234375 0)"/>
     </g>
    </g>
    <g id="line2d_22">
     <path d="M 143.649922 186.913906 
L 151.649922 186.913906 
L 159.649922 186.913906 
" style="fill: none; stroke: #ff725c; stroke-width: 1.6; stroke-linecap: square"/>
    </g>
    <g id="text_17">
     <!-- epad -->
     <g transform="translate(166.049922 189.713906) scale(0.08 -0.08)">
      <use xlink:href="#DejaVuSans-48"/>
      <use xlink:href="#DejaVuSans-53" transform="translate(61.53125 0)"/>
      <use xlink:href="#DejaVuSans-44" transform="translate(125.015625 0)"/>
      <use xlink:href="#DejaVuSans-47" transform="translate(186.296875 0)"/>
     </g>
    </g>
   </g>
  </g>
  <g id="axes_2">
   <g id="patch_5">
    <path d="M 360.345469 198.835781 
L 623.423125 198.835781 
L 623.423125 22.318125 
L 360.345469 22.318125 
z
" style="fill: #ffffff"/>
   </g>
   <g id="line2d_23">
    <path d="M 511.814422 198.835781 
L 511.814422 22.318125 
" clip-path="url(#pb3d4f4e76b)" style="fill: none; stroke: #e0e0e0; stroke-width: 0.8; stroke-linecap: square"/>
   </g>
   <g id="line2d_24">
    <path d="M 471.954171 198.835781 
L 471.954171 22.318125 
" clip-path="url(#pb3d4f4e76b)" style="fill: none; stroke: #e0e0e0; stroke-width: 0.8; stroke-linecap: square"/>
   </g>
   <g id="line2d_25">
    <path d="M 491.884297 198.835781 
L 491.884297 22.318125 
" clip-path="url(#pb3d4f4e76b)" style="fill: none; stroke: #e0e0e0; stroke-width: 0.8; stroke-linecap: square"/>
   </g>
   <g id="line2d_26">
    <path d="M 564.961419 198.835781 
L 564.961419 22.318125 
" clip-path="url(#pb3d4f4e76b)" style="fill: none; stroke: #e0e0e0; stroke-width: 0.8; stroke-linecap: square"/>
   </g>
   <g id="line2d_27">
    <path d="M 418.807175 198.835781 
L 418.807175 22.318125 
" clip-path="url(#pb3d4f4e76b)" style="fill: none; stroke: #e0e0e0; stroke-width: 0.8; stroke-linecap: square"/>
   </g>
   <g id="matplotlib.axis_3">
    <g id="xtick_8">
     <g id="line2d_28">
      <g>
       <use xlink:href="#md184c609d4" x="372.303544" y="198.835781" style="stroke: #000000; stroke-width: 0.8"/>
      </g>
     </g>
     <g id="text_18">
      <!-- −180 -->
      <g transform="translate(358.56995 213.433437) scale(0.1 -0.1)">
       <use xlink:href="#DejaVuSans-c9c"/>
       <use xlink:href="#DejaVuSans-14" transform="translate(83.796875 0)"/>
       <use xlink:href="#DejaVuSans-1b" transform="translate(147.421875 0)"/>
       <use xlink:href="#DejaVuSans-13" transform="translate(211.046875 0)"/>
      </g>
     </g>
    </g>
    <g id="xtick_9">
     <g id="line2d_29">
      <g>
       <use xlink:href="#md184c609d4" x="418.80717" y="198.835781" style="stroke: #000000; stroke-width: 0.8"/>
      </g>
     </g>
     <g id="text_19">
      <!-- −110 -->
      <g transform="translate(405.073576 213.433437) scale(0.1 -0.1)">
       <use xlink:href="#DejaVuSans-c9c"/>
       <use xlink:href="#DejaVuSans-14" transform="translate(83.796875 0)"/>
       <use xlink:href="#DejaVuSans-14" transform="translate(147.421875 0)"/>
       <use xlink:href="#DejaVuSans-13" transform="translate(211.046875 0)"/>
      </g>
     </g>
    </g>
    <g id="xtick_10">
     <g id="line2d_30">
      <g>
       <use xlink:href="#md184c609d4" x="471.954171" y="198.835781" style="stroke: #000000; stroke-width: 0.8"/>
      </g>
     </g>
     <g id="text_20">
      <!-- −30 -->
      <g transform="translate(461.401828 213.433437) scale(0.1 -0.1)">
       <use xlink:href="#DejaVuSans-c9c"/>
       <use xlink:href="#DejaVuSans-16" transform="translate(83.796875 0)"/>
       <use xlink:href="#DejaVuSans-13" transform="translate(147.421875 0)"/>
      </g>
     </g>
    </g>
    <g id="xtick_11">
     <g id="line2d_31">
      <g>
       <use xlink:href="#md184c609d4" x="491.884297" y="198.835781" style="stroke: #000000; stroke-width: 0.8"/>
      </g>
     </g>
     <g id="text_21">
      <!-- 0 -->
      <g transform="translate(488.703047 213.433437) scale(0.1 -0.1)">
       <use xlink:href="#DejaVuSans-13"/>
      </g>
     </g>
    </g>
    <g id="xtick_12">
     <g id="line2d_32">
      <g>
       <use xlink:href="#md184c609d4" x="511.814422" y="198.835781" style="stroke: #000000; stroke-width: 0.8"/>
      </g>
     </g>
     <g id="text_22">
      <!-- 30 -->
      <g transform="translate(505.451922 213.433437) scale(0.1 -0.1)">
       <use xlink:href="#DejaVuSans-16"/>
       <use xlink:href="#DejaVuSans-13" transform="translate(63.625 0)"/>
      </g>
     </g>
    </g>
    <g id="xtick_13">
     <g id="line2d_33">
      <g>
       <use xlink:href="#md184c609d4" x="564.961424" y="198.835781" style="stroke: #000000; stroke-width: 0.8"/>
      </g>
     </g>
     <g id="text_23">
      <!-- 110 -->
      <g transform="translate(555.417674 213.433437) scale(0.1 -0.1)">
       <use xlink:href="#DejaVuSans-14"/>
       <use xlink:href="#DejaVuSans-14" transform="translate(63.625 0)"/>
       <use xlink:href="#DejaVuSans-13" transform="translate(127.25 0)"/>
      </g>
     </g>
    </g>
    <g id="xtick_14">
     <g id="line2d_34">
      <g>
       <use xlink:href="#md184c609d4" x="611.46505" y="198.835781" style="stroke: #000000; stroke-width: 0.8"/>
      </g>
     </g>
     <g id="text_24">
      <!-- 180 -->
      <g transform="translate(601.9213 213.433437) scale(0.1 -0.1)">
       <use xlink:href="#DejaVuSans-14"/>
       <use xlink:href="#DejaVuSans-1b" transform="translate(63.625 0)"/>
       <use xlink:href="#DejaVuSans-13" transform="translate(127.25 0)"/>
      </g>
     </g>
    </g>
    <g id="text_25">
     <!-- source azimuth (°) — vertical lines: the five speakers -->
     <g transform="translate(359.201484 227.434219) scale(0.1 -0.1)">
      <use xlink:href="#DejaVuSans-56"/>
      <use xlink:href="#DejaVuSans-52" transform="translate(52.09375 0)"/>
      <use xlink:href="#DejaVuSans-58" transform="translate(113.28125 0)"/>
      <use xlink:href="#DejaVuSans-55" transform="translate(176.65625 0)"/>
      <use xlink:href="#DejaVuSans-46" transform="translate(215.5625 0)"/>
      <use xlink:href="#DejaVuSans-48" transform="translate(270.546875 0)"/>
      <use xlink:href="#DejaVuSans-3" transform="translate(332.078125 0)"/>
      <use xlink:href="#DejaVuSans-44" transform="translate(363.859375 0)"/>
      <use xlink:href="#DejaVuSans-5d" transform="translate(425.140625 0)"/>
      <use xlink:href="#DejaVuSans-4c" transform="translate(477.625 0)"/>
      <use xlink:href="#DejaVuSans-50" transform="translate(505.40625 0)"/>
      <use xlink:href="#DejaVuSans-58" transform="translate(602.8125 0)"/>
      <use xlink:href="#DejaVuSans-57" transform="translate(666.1875 0)"/>
      <use xlink:href="#DejaVuSans-4b" transform="translate(705.390625 0)"/>
      <use xlink:href="#DejaVuSans-3" transform="translate(768.765625 0)"/>
      <use xlink:href="#DejaVuSans-b" transform="translate(800.546875 0)"/>
      <use xlink:href="#DejaVuSans-72" transform="translate(839.5625 0)"/>
      <use xlink:href="#DejaVuSans-c" transform="translate(889.5625 0)"/>
      <use xlink:href="#DejaVuSans-3" transform="translate(928.578125 0)"/>
      <use xlink:href="#DejaVuSans-af6" transform="translate(960.359375 0)"/>
      <use xlink:href="#DejaVuSans-3" transform="translate(1060.359375 0)"/>
      <use xlink:href="#DejaVuSans-59" transform="translate(1092.140625 0)"/>
      <use xlink:href="#DejaVuSans-48" transform="translate(1151.328125 0)"/>
      <use xlink:href="#DejaVuSans-55" transform="translate(1212.859375 0)"/>
      <use xlink:href="#DejaVuSans-57" transform="translate(1253.96875 0)"/>
      <use xlink:href="#DejaVuSans-4c" transform="translate(1293.171875 0)"/>
      <use xlink:href="#DejaVuSans-46" transform="translate(1320.953125 0)"/>
      <use xlink:href="#DejaVuSans-44" transform="translate(1375.9375 0)"/>
      <use xlink:href="#DejaVuSans-4f" transform="translate(1437.21875 0)"/>
      <use xlink:href="#DejaVuSans-3" transform="translate(1465 0)"/>
      <use xlink:href="#DejaVuSans-4f" transform="translate(1496.78125 0)"/>
      <use xlink:href="#DejaVuSans-4c" transform="translate(1524.5625 0)"/>
      <use xlink:href="#DejaVuSans-51" transform="translate(1552.34375 0)"/>
      <use xlink:href="#DejaVuSans-48" transform="translate(1615.71875 0)"/>
      <use xlink:href="#DejaVuSans-56" transform="translate(1677.25 0)"/>
      <use xlink:href="#DejaVuSans-1d" transform="translate(1729.34375 0)"/>
      <use xlink:href="#DejaVuSans-3" transform="translate(1763.03125 0)"/>
      <use xlink:href="#DejaVuSans-57" transform="translate(1794.8125 0)"/>
      <use xlink:href="#DejaVuSans-4b" transform="translate(1834.015625 0)"/>
      <use xlink:href="#DejaVuSans-48" transform="translate(1897.390625 0)"/>
      <use xlink:href="#DejaVuSans-3" transform="translate(1958.921875 0)"/>
      <use xlink:href="#DejaVuSans-13af" transform="translate(1990.703125 0)"/>
      <use xlink:href="#DejaVuSans-59" transform="translate(2053.6875 0)"/>
      <use xlink:href="#DejaVuSans-48" transform="translate(2112.875 0)"/>
      <use xlink:href="#DejaVuSans-3" transform="translate(2174.40625 0)"/>
      <use xlink:href="#DejaVuSans-56" transform="translate(2206.1875 0)"/>
      <use xlink:href="#DejaVuSans-53" transform="translate(2258.28125 0)"/>
      <use xlink:href="#DejaVuSans-48" transform="translate(2321.765625 0)"/>
      <use xlink:href="#DejaVuSans-44" transform="translate(2383.296875 0)"/>
      <use xlink:href="#DejaVuSans-4e" transform="translate(2444.578125 0)"/>
      <use xlink:href="#DejaVuSans-48" transform="translate(2498.921875 0)"/>
      <use xlink:href="#DejaVuSans-55" transform="translate(2560.453125 0)"/>
      <use xlink:href="#DejaVuSans-56" transform="translate(2601.5625 0)"/>
     </g>
    </g>
   </g>
   <g id="matplotlib.axis_4">
    <g id="ytick_5">
     <g id="line2d_35">
      <g>
       <use xlink:href="#m895ca69d98" x="360.345469" y="176.478598" style="stroke: #000000; stroke-width: 0.8"/>
      </g>
     </g>
     <g id="text_26">
      <!-- 0.4 -->
      <g transform="translate(337.442344 180.277426) scale(0.1 -0.1)">
       <defs>
        <path id="DejaVuSans-17" d="M 2419 4116 
L 825 1625 
L 2419 1625 
L 2419 4116 
z
M 2253 4666 
L 3047 4666 
L 3047 1625 
L 3713 1625 
L 3713 1100 
L 3047 1100 
L 3047 0 
L 2419 0 
L 2419 1100 
L 313 1100 
L 313 1709 
L 2253 4666 
z
" transform="scale(0.015625)"/>
       </defs>
       <use xlink:href="#DejaVuSans-13"/>
       <use xlink:href="#DejaVuSans-11" transform="translate(63.625 0)"/>
       <use xlink:href="#DejaVuSans-17" transform="translate(95.40625 0)"/>
      </g>
     </g>
    </g>
    <g id="ytick_6">
     <g id="line2d_36">
      <g>
       <use xlink:href="#m895ca69d98" x="360.345469" y="151.980676" style="stroke: #000000; stroke-width: 0.8"/>
      </g>
     </g>
     <g id="text_27">
      <!-- 0.5 -->
      <g transform="translate(337.442344 155.779504) scale(0.1 -0.1)">
       <use xlink:href="#DejaVuSans-13"/>
       <use xlink:href="#DejaVuSans-11" transform="translate(63.625 0)"/>
       <use xlink:href="#DejaVuSans-18" transform="translate(95.40625 0)"/>
      </g>
     </g>
    </g>
    <g id="ytick_7">
     <g id="line2d_37">
      <g>
       <use xlink:href="#m895ca69d98" x="360.345469" y="127.482753" style="stroke: #000000; stroke-width: 0.8"/>
      </g>
     </g>
     <g id="text_28">
      <!-- 0.6 -->
      <g transform="translate(337.442344 131.281582) scale(0.1 -0.1)">
       <defs>
        <path id="DejaVuSans-19" d="M 2113 2584 
Q 1688 2584 1439 2293 
Q 1191 2003 1191 1497 
Q 1191 994 1439 701 
Q 1688 409 2113 409 
Q 2538 409 2786 701 
Q 3034 994 3034 1497 
Q 3034 2003 2786 2293 
Q 2538 2584 2113 2584 
z
M 3366 4563 
L 3366 3988 
Q 3128 4100 2886 4159 
Q 2644 4219 2406 4219 
Q 1781 4219 1451 3797 
Q 1122 3375 1075 2522 
Q 1259 2794 1537 2939 
Q 1816 3084 2150 3084 
Q 2853 3084 3261 2657 
Q 3669 2231 3669 1497 
Q 3669 778 3244 343 
Q 2819 -91 2113 -91 
Q 1303 -91 875 529 
Q 447 1150 447 2328 
Q 447 3434 972 4092 
Q 1497 4750 2381 4750 
Q 2619 4750 2861 4703 
Q 3103 4656 3366 4563 
z
" transform="scale(0.015625)"/>
       </defs>
       <use xlink:href="#DejaVuSans-13"/>
       <use xlink:href="#DejaVuSans-11" transform="translate(63.625 0)"/>
       <use xlink:href="#DejaVuSans-19" transform="translate(95.40625 0)"/>
      </g>
     </g>
    </g>
    <g id="ytick_8">
     <g id="line2d_38">
      <g>
       <use xlink:href="#m895ca69d98" x="360.345469" y="102.984831" style="stroke: #000000; stroke-width: 0.8"/>
      </g>
     </g>
     <g id="text_29">
      <!-- 0.7 -->
      <g transform="translate(337.442344 106.783659) scale(0.1 -0.1)">
       <defs>
        <path id="DejaVuSans-1a" d="M 525 4666 
L 3525 4666 
L 3525 4397 
L 1831 0 
L 1172 0 
L 2766 4134 
L 525 4134 
L 525 4666 
z
" transform="scale(0.015625)"/>
       </defs>
       <use xlink:href="#DejaVuSans-13"/>
       <use xlink:href="#DejaVuSans-11" transform="translate(63.625 0)"/>
       <use xlink:href="#DejaVuSans-1a" transform="translate(95.40625 0)"/>
      </g>
     </g>
    </g>
    <g id="ytick_9">
     <g id="line2d_39">
      <g>
       <use xlink:href="#m895ca69d98" x="360.345469" y="78.486909" style="stroke: #000000; stroke-width: 0.8"/>
      </g>
     </g>
     <g id="text_30">
      <!-- 0.8 -->
      <g transform="translate(337.442344 82.285737) scale(0.1 -0.1)">
       <use xlink:href="#DejaVuSans-13"/>
       <use xlink:href="#DejaVuSans-11" transform="translate(63.625 0)"/>
       <use xlink:href="#DejaVuSans-1b" transform="translate(95.40625 0)"/>
      </g>
     </g>
    </g>
    <g id="ytick_10">
     <g id="line2d_40">
      <g>
       <use xlink:href="#m895ca69d98" x="360.345469" y="53.988987" style="stroke: #000000; stroke-width: 0.8"/>
      </g>
     </g>
     <g id="text_31">
      <!-- 0.9 -->
      <g transform="translate(337.442344 57.787815) scale(0.1 -0.1)">
       <defs>
        <path id="DejaVuSans-1c" d="M 703 97 
L 703 672 
Q 941 559 1184 500 
Q 1428 441 1663 441 
Q 2288 441 2617 861 
Q 2947 1281 2994 2138 
Q 2813 1869 2534 1725 
Q 2256 1581 1919 1581 
Q 1219 1581 811 2004 
Q 403 2428 403 3163 
Q 403 3881 828 4315 
Q 1253 4750 1959 4750 
Q 2769 4750 3195 4129 
Q 3622 3509 3622 2328 
Q 3622 1225 3098 567 
Q 2575 -91 1691 -91 
Q 1453 -91 1209 -44 
Q 966 3 703 97 
z
M 1959 2075 
Q 2384 2075 2632 2365 
Q 2881 2656 2881 3163 
Q 2881 3666 2632 3958 
Q 2384 4250 1959 4250 
Q 1534 4250 1286 3958 
Q 1038 3666 1038 3163 
Q 1038 2656 1286 2365 
Q 1534 2075 1959 2075 
z
" transform="scale(0.015625)"/>
       </defs>
       <use xlink:href="#DejaVuSans-13"/>
       <use xlink:href="#DejaVuSans-11" transform="translate(63.625 0)"/>
       <use xlink:href="#DejaVuSans-1c" transform="translate(95.40625 0)"/>
      </g>
     </g>
    </g>
    <g id="ytick_11">
     <g id="line2d_41">
      <g>
       <use xlink:href="#m895ca69d98" x="360.345469" y="29.491065" style="stroke: #000000; stroke-width: 0.8"/>
      </g>
     </g>
     <g id="text_32">
      <!-- 1.0 -->
      <g transform="translate(337.442344 33.289893) scale(0.1 -0.1)">
       <use xlink:href="#DejaVuSans-14"/>
       <use xlink:href="#DejaVuSans-11" transform="translate(63.625 0)"/>
       <use xlink:href="#DejaVuSans-13" transform="translate(95.40625 0)"/>
      </g>
     </g>
    </g>
    <g id="text_33">
     <!-- |rE| (concentration, 0–1) -->
     <g transform="translate(331.04 171.320703) rotate(-90) scale(0.1 -0.1)">
      <defs>
       <path id="DejaVuSans-5f" d="M 1344 4891 
L 1344 -1509 
L 813 -1509 
L 813 4891 
L 1344 4891 
z
" transform="scale(0.015625)"/>
       <path id="DejaVuSans-28" d="M 628 4666 
L 3578 4666 
L 3578 4134 
L 1259 4134 
L 1259 2753 
L 3481 2753 
L 3481 2222 
L 1259 2222 
L 1259 531 
L 3634 531 
L 3634 0 
L 628 0 
L 628 4666 
z
" transform="scale(0.015625)"/>
       <path id="DejaVuSans-f" d="M 750 794 
L 1409 794 
L 1409 256 
L 897 -744 
L 494 -744 
L 750 256 
L 750 794 
z
" transform="scale(0.015625)"/>
       <path id="DejaVuSans-af5" d="M 313 1978 
L 2888 1978 
L 2888 1528 
L 313 1528 
L 313 1978 
z
" transform="scale(0.015625)"/>
      </defs>
      <use xlink:href="#DejaVuSans-5f"/>
      <use xlink:href="#DejaVuSans-55" transform="translate(33.6875 0)"/>
      <use xlink:href="#DejaVuSans-28" transform="translate(74.796875 0)"/>
      <use xlink:href="#DejaVuSans-5f" transform="translate(137.984375 0)"/>
      <use xlink:href="#DejaVuSans-3" transform="translate(171.671875 0)"/>
      <use xlink:href="#DejaVuSans-b" transform="translate(203.453125 0)"/>
      <use xlink:href="#DejaVuSans-46" transform="translate(242.46875 0)"/>
      <use xlink:href="#DejaVuSans-52" transform="translate(297.453125 0)"/>
      <use xlink:href="#DejaVuSans-51" transform="translate(358.640625 0)"/>
      <use xlink:href="#DejaVuSans-46" transform="translate(422.015625 0)"/>
      <use xlink:href="#DejaVuSans-48" transform="translate(477 0)"/>
      <use xlink:href="#DejaVuSans-51" transform="translate(538.53125 0)"/>
      <use xlink:href="#DejaVuSans-57" transform="translate(601.90625 0)"/>
      <use xlink:href="#DejaVuSans-55" transform="translate(641.109375 0)"/>
      <use xlink:href="#DejaVuSans-44" transform="translate(682.21875 0)"/>
      <use xlink:href="#DejaVuSans-57" transform="translate(743.5 0)"/>
      <use xlink:href="#DejaVuSans-4c" transform="translate(782.703125 0)"/>
      <use xlink:href="#DejaVuSans-52" transform="translate(810.484375 0)"/>
      <use xlink:href="#DejaVuSans-51" transform="translate(871.671875 0)"/>
      <use xlink:href="#DejaVuSans-f" transform="translate(935.046875 0)"/>
      <use xlink:href="#DejaVuSans-3" transform="translate(966.828125 0)"/>
      <use xlink:href="#DejaVuSans-13" transform="translate(998.609375 0)"/>
      <use xlink:href="#DejaVuSans-af5" transform="translate(1062.234375 0)"/>
      <use xlink:href="#DejaVuSans-14" transform="translate(1112.234375 0)"/>
      <use xlink:href="#DejaVuSans-c" transform="translate(1175.859375 0)"/>
     </g>
    </g>
   </g>
   <g id="line2d_42">
    <path d="M 372.303544 50.65957 
L 372.967882 51.161145 
L 373.632219 52.659943 
L 374.296557 55.137286 
L 374.960894 58.559577 
L 375.625232 62.875066 
L 376.953907 73.856848 
L 378.946919 94.107303 
L 380.275594 107.559522 
L 380.939932 113.392134 
L 381.604269 118.20911 
L 382.268607 121.737951 
L 382.932944 123.785649 
L 383.597282 124.27068 
L 384.261619 123.235639 
L 384.925957 120.835612 
L 385.590294 117.30626 
L 386.918969 107.962928 
L 390.240657 81.892902 
L 391.569332 73.083649 
L 392.898007 65.671943 
L 394.226682 59.588807 
L 395.555357 54.671778 
L 396.884032 50.743414 
L 398.212707 47.651929 
L 399.541382 45.288553 
L 400.870057 43.5919 
L 401.534395 42.986754 
L 402.198732 42.54509 
L 402.86307 42.270677 
L 403.527407 42.169077 
L 404.191745 42.247489 
L 404.856082 42.514265 
L 405.52042 42.978547 
L 406.184757 43.65022 
L 406.849095 44.539067 
L 407.513432 45.654711 
L 408.842107 48.600834 
L 410.170782 52.543492 
L 411.499457 57.504853 
L 412.828132 63.460486 
L 414.156808 70.326854 
L 416.14982 81.982455 
L 420.800183 110.592657 
L 422.128858 117.485776 
L 423.457533 123.12595 
L 424.12187 125.386134 
L 424.786208 127.239305 
L 425.450545 128.670744 
L 426.114883 129.67496 
L 426.77922 130.255634 
L 427.443558 130.424943 
L 428.107895 130.202789 
L 428.772233 129.615384 
L 429.43657 128.693815 
L 430.100908 127.472395 
L 431.429583 124.275046 
L 432.758258 120.311112 
L 434.751271 113.495705 
L 440.730308 92.277875 
L 443.387658 84.020296 
L 445.380671 78.503874 
L 447.373683 73.554574 
L 449.366696 69.126753 
L 451.359708 65.158716 
L 454.017058 60.462803 
L 456.674409 56.289756 
L 459.996096 51.556652 
L 465.310796 44.497452 
L 468.632484 40.343518 
L 470.625496 38.162461 
L 471.954171 36.977298 
L 473.282846 36.112618 
L 474.611521 35.658571 
L 475.275859 35.607509 
L 475.940196 35.679919 
L 476.604534 35.875147 
L 477.933209 36.606936 
L 479.261884 37.696821 
L 482.583572 40.778173 
L 483.912247 41.682103 
L 485.240922 42.26009 
L 486.569597 42.536022 
L 487.898272 42.592429 
L 493.877309 42.492669 
L 496.534659 42.585201 
L 497.863335 42.431619 
L 499.19201 42.01215 
L 500.520685 41.26922 
L 501.84936 40.219635 
L 505.835385 36.606936 
L 507.16406 35.875161 
L 507.828397 35.67989 
L 508.492735 35.607494 
L 509.157072 35.658557 
L 510.485747 36.112618 
L 511.814422 36.977327 
L 513.143097 38.162447 
L 515.13611 40.343532 
L 518.457798 44.497466 
L 523.772498 51.556638 
L 527.094185 56.289756 
L 529.751535 60.462818 
L 531.744548 63.926359 
L 533.73756 67.756306 
L 535.730573 72.023522 
L 537.723585 76.792882 
L 539.716598 82.116705 
L 541.709611 88.022531 
L 544.366961 96.765841 
L 547.688648 108.682349 
L 550.345998 118.125807 
L 551.674673 122.371542 
L 553.003348 125.987265 
L 554.332023 128.693785 
L 554.996361 129.615413 
L 555.660698 130.202789 
L 556.325036 130.424943 
L 556.989373 130.255634 
L 557.653711 129.674975 
L 558.318048 128.670744 
L 558.982386 127.23929 
L 559.646723 125.386148 
L 560.975399 120.48213 
L 562.304074 114.174941 
L 563.632749 106.785971 
L 566.290099 90.30415 
L 568.947449 74.057113 
L 570.940461 63.460559 
L 572.269136 57.504926 
L 573.597811 52.54358 
L 574.926486 48.600921 
L 576.255161 45.654754 
L 576.919499 44.53914 
L 577.583836 43.650293 
L 578.248174 42.978635 
L 578.912511 42.514295 
L 579.576849 42.247547 
L 580.241186 42.16912 
L 580.905524 42.27075 
L 581.569862 42.545119 
L 582.234199 42.986798 
L 582.898537 43.591915 
L 584.227212 45.288553 
L 585.555887 47.651944 
L 586.884562 50.743443 
L 588.213237 54.671822 
L 589.541912 59.588836 
L 590.870587 65.671973 
L 592.199262 73.083649 
L 593.527937 81.892916 
L 595.520949 97.284296 
L 597.513962 112.922726 
L 598.178299 117.30626 
L 598.842637 120.835583 
L 599.506974 123.23561 
L 600.171312 124.270666 
L 600.835649 123.785605 
L 601.499987 121.737922 
L 602.164324 118.209096 
L 602.828662 113.392104 
L 604.157337 101.02488 
L 606.814687 73.856848 
L 608.143362 62.875052 
L 608.8077 58.559577 
L 609.472037 55.137257 
L 610.136375 52.659913 
L 610.800712 51.161145 
L 611.46505 50.659599 
L 611.46505 50.659599 
" clip-path="url(#pb3d4f4e76b)" style="fill: none; stroke: #4269d0; stroke-width: 1.6; stroke-linecap: square"/>
   </g>
   <g id="line2d_43">
    <path d="M 372.303544 190.812251 
L 372.967882 190.718828 
L 373.632219 190.439114 
L 374.296557 189.974701 
L 374.960894 189.328202 
L 376.289569 187.504067 
L 377.618244 185.004784 
L 378.946919 181.878364 
L 380.275594 178.179294 
L 382.268607 171.683077 
L 384.261619 164.224018 
L 386.918969 153.108563 
L 390.240657 137.92864 
L 400.870057 88.100651 
L 403.527407 77.107056 
L 405.52042 69.60552 
L 407.513432 62.849718 
L 409.506445 56.926778 
L 411.499457 51.915669 
L 412.828132 49.117186 
L 414.156808 46.775465 
L 415.485483 44.908276 
L 416.814158 43.531638 
L 418.142833 42.658912 
L 418.80717 42.414885 
L 419.471508 42.300304 
L 420.135845 42.315796 
L 420.800183 42.461509 
L 421.46452 42.737426 
L 422.793195 43.676766 
L 424.12187 45.123012 
L 425.450545 47.056084 
L 426.77922 49.444853 
L 428.107895 52.24611 
L 430.100908 57.093444 
L 432.758258 64.354137 
L 436.744283 75.323405 
L 438.737296 80.008585 
L 440.065971 82.582564 
L 441.394646 84.611585 
L 442.723321 86.030029 
L 443.387658 86.497041 
L 444.051996 86.799052 
L 444.716333 86.935814 
L 445.380671 86.908785 
L 446.045008 86.72118 
L 446.709346 86.377802 
L 447.373683 85.884944 
L 448.702358 84.482198 
L 450.031033 82.585382 
L 451.359708 80.278326 
L 453.352721 76.243018 
L 456.010071 70.243112 
L 460.660434 59.657699 
L 463.317784 54.263771 
L 465.310796 50.723906 
L 467.303809 47.681162 
L 469.296821 45.167168 
L 470.625496 43.792589 
L 471.954171 42.660839 
L 473.282846 41.770781 
L 474.611521 41.119112 
L 475.940196 40.699965 
L 477.268872 40.50411 
L 478.597547 40.518025 
L 479.926222 40.722861 
L 481.919234 41.330183 
L 484.576584 42.505315 
L 487.898272 44.012537 
L 489.891284 44.621159 
L 491.219959 44.815262 
L 492.548634 44.815291 
L 493.877309 44.621159 
L 495.205984 44.252111 
L 497.198997 43.45178 
L 502.513697 41.093106 
L 503.842372 40.722861 
L 505.171047 40.518025 
L 506.499722 40.50411 
L 507.828397 40.699965 
L 509.157072 41.119112 
L 510.485747 41.770781 
L 511.814422 42.660839 
L 513.143097 43.792574 
L 514.471772 45.167139 
L 515.800447 46.783394 
L 517.79346 49.652448 
L 519.786473 53.0314 
L 521.779485 56.873978 
L 524.436835 62.584021 
L 531.744548 78.998674 
L 533.073223 81.477624 
L 534.401898 83.590475 
L 535.730573 85.250199 
L 537.059248 86.377817 
L 537.723585 86.721195 
L 538.387923 86.908785 
L 539.05226 86.935828 
L 539.716598 86.799052 
L 540.380936 86.497012 
L 541.045273 86.030029 
L 541.709611 85.400219 
L 543.038286 83.669865 
L 544.366961 81.358633 
L 545.695636 78.544117 
L 547.688648 73.594905 
L 551.010336 64.354137 
L 553.667686 57.093444 
L 555.660698 52.246066 
L 556.989373 49.444853 
L 558.318048 47.05604 
L 559.646723 45.123012 
L 560.975399 43.676766 
L 562.304074 42.737412 
L 562.968411 42.461509 
L 563.632749 42.315782 
L 564.297086 42.300275 
L 564.961424 42.41487 
L 565.625761 42.658941 
L 566.290099 43.031552 
L 567.618774 44.157738 
L 568.947449 45.781499 
L 570.276124 47.888057 
L 571.604799 50.460532 
L 572.933474 53.480175 
L 574.262149 56.926822 
L 576.255161 62.849718 
L 578.248174 69.60552 
L 580.241186 77.107056 
L 582.898537 88.100636 
L 586.220224 103.0664 
L 591.534924 128.434456 
L 595.520949 147.169802 
L 598.178299 158.810743 
L 600.171312 166.805473 
L 602.164324 173.965076 
L 604.157337 180.096852 
L 605.486012 183.516682 
L 606.814687 186.336017 
L 608.143362 188.503202 
L 608.8077 189.328202 
L 609.472037 189.974701 
L 610.136375 190.439122 
L 610.800712 190.718828 
L 611.46505 190.812251 
L 611.46505 190.812251 
" clip-path="url(#pb3d4f4e76b)" style="fill: none; stroke: #efb118; stroke-width: 1.6; stroke-linecap: square"/>
   </g>
   <g id="line2d_44">
    <path d="M 372.303544 41.173913 
L 372.967882 43.856253 
L 373.632219 51.600867 
L 374.296557 63.552887 
L 375.625232 94.747333 
L 376.953907 125.338459 
L 377.618244 136.815435 
L 378.282582 144.430165 
L 378.946919 147.877148 
L 379.611257 147.47688 
L 380.275594 144.00357 
L 380.939932 138.391973 
L 382.268607 123.976715 
L 384.261619 101.592748 
L 385.590294 88.590851 
L 386.918969 77.590452 
L 388.247644 68.492928 
L 389.576319 61.0597 
L 390.904994 55.022121 
L 392.23367 50.127214 
L 393.562345 46.154504 
L 394.89102 42.919877 
L 396.219695 40.273881 
L 397.54837 38.097848 
L 398.877045 36.299493 
L 400.20572 34.808799 
L 401.534395 33.574355 
L 402.86307 32.560253 
L 404.191745 31.743554 
L 405.52042 31.112197 
L 406.849095 30.66351 
L 408.17777 30.402589 
L 409.506445 30.341655 
L 410.83512 30.498873 
L 412.163795 30.89771 
L 413.49247 31.566389 
L 414.821145 32.536934 
L 416.14982 33.844592 
L 417.478495 35.526556 
L 418.80717 37.621008 
L 420.135845 40.16498 
L 421.46452 43.192465 
L 422.793195 46.731031 
L 424.12187 50.798186 
L 425.450545 55.396514 
L 427.443558 63.241764 
L 429.43657 72.043964 
L 434.751271 96.390281 
L 436.079946 101.321561 
L 437.408621 105.14942 
L 438.072958 106.550998 
L 438.737296 107.566545 
L 439.401633 108.170713 
L 440.065971 108.346126 
L 440.730308 108.084504 
L 441.394646 107.387234 
L 442.058983 106.265341 
L 442.723321 104.73896 
L 443.387658 102.836435 
L 444.716333 98.048195 
L 446.045008 92.23312 
L 448.038021 82.376531 
L 451.359708 65.602205 
L 453.352721 56.609362 
L 454.681396 51.345859 
L 456.010071 46.739369 
L 457.338746 42.809311 
L 458.667421 39.547948 
L 459.996096 36.927798 
L 461.324771 34.908647 
L 462.653446 33.441886 
L 463.982121 32.474204 
L 465.310796 31.949908 
L 466.639471 31.812577 
L 467.968146 32.005921 
L 469.296821 32.474423 
L 470.625496 33.164041 
L 472.618509 34.499531 
L 475.940196 37.131684 
L 479.261884 39.732735 
L 481.919234 41.494294 
L 483.912247 42.548317 
L 485.905259 43.354035 
L 487.898272 43.914865 
L 489.891284 44.243174 
L 491.884297 44.351009 
L 493.877309 44.243218 
L 495.870322 43.914865 
L 497.863335 43.354035 
L 499.856347 42.548332 
L 501.84936 41.49425 
L 503.842372 40.20718 
L 506.499722 38.205143 
L 511.814422 34.022589 
L 513.807435 32.794935 
L 515.13611 32.209165 
L 516.464785 31.871423 
L 517.79346 31.836407 
L 519.122135 32.160161 
L 520.45081 32.89909 
L 521.779485 34.109456 
L 523.10816 35.845987 
L 524.436835 38.159994 
L 525.76551 41.096406 
L 527.094185 44.689744 
L 528.42286 48.958522 
L 529.751535 53.897979 
L 531.744548 62.474113 
L 533.73756 72.160823 
L 537.723585 92.233105 
L 539.05226 98.048151 
L 540.380936 102.836391 
L 541.045273 104.738917 
L 541.709611 106.265297 
L 542.373948 107.387205 
L 543.038286 108.084489 
L 543.702623 108.346111 
L 544.366961 108.170713 
L 545.031298 107.566545 
L 545.695636 106.550998 
L 546.359973 105.149434 
L 547.024311 103.393892 
L 548.352986 98.972948 
L 549.681661 93.616314 
L 551.674673 84.554039 
L 555.660698 66.08414 
L 557.653711 57.89008 
L 559.646723 50.798259 
L 560.975399 46.731075 
L 562.304074 43.192494 
L 563.632749 40.165024 
L 564.961424 37.621023 
L 566.290099 35.526614 
L 567.618774 33.844621 
L 568.947449 32.536963 
L 570.276124 31.566418 
L 571.604799 30.897754 
L 572.933474 30.498873 
L 574.262149 30.341655 
L 575.590824 30.402589 
L 576.919499 30.66351 
L 578.248174 31.112226 
L 579.576849 31.743539 
L 580.905524 32.560253 
L 582.234199 33.57434 
L 583.562874 34.808799 
L 584.891549 36.299493 
L 586.220224 38.097833 
L 587.548899 40.273896 
L 588.877574 42.919862 
L 590.206249 46.15449 
L 591.534924 50.127199 
L 592.863599 55.022121 
L 594.192274 61.059685 
L 595.520949 68.492899 
L 596.849624 77.590437 
L 598.178299 88.590837 
L 599.506974 101.592675 
L 603.493 144.003483 
L 604.157337 147.476778 
L 604.821675 147.877016 
L 605.486012 144.430019 
L 606.15035 136.815274 
L 606.814687 125.338254 
L 608.143362 94.747158 
L 609.472037 63.552741 
L 610.136375 51.600794 
L 610.800712 43.856195 
L 611.46505 41.173928 
L 611.46505 41.173928 
" clip-path="url(#pb3d4f4e76b)" style="fill: none; stroke: #ff725c; stroke-width: 1.6; stroke-linecap: square"/>
   </g>
   <g id="patch_6">
    <path d="M 360.345469 198.835781 
L 360.345469 22.318125 
" style="fill: none; stroke: #000000; stroke-width: 0.8; stroke-linejoin: miter; stroke-linecap: square"/>
   </g>
   <g id="patch_7">
    <path d="M 360.345469 198.835781 
L 623.423125 198.835781 
" style="fill: none; stroke: #000000; stroke-width: 0.8; stroke-linejoin: miter; stroke-linecap: square"/>
   </g>
   <g id="text_34">
    <!-- Image focus around the circle -->
    <g transform="translate(402.552734 16.318125) scale(0.12 -0.12)">
     <defs>
      <path id="DejaVuSans-2c" d="M 628 4666 
L 1259 4666 
L 1259 0 
L 628 0 
L 628 4666 
z
" transform="scale(0.015625)"/>
      <path id="DejaVuSans-49" d="M 2375 4863 
L 2375 4384 
L 1825 4384 
Q 1516 4384 1395 4259 
Q 1275 4134 1275 3809 
L 1275 3500 
L 2222 3500 
L 2222 3053 
L 1275 3053 
L 1275 0 
L 697 0 
L 697 3053 
L 147 3053 
L 147 3500 
L 697 3500 
L 697 3744 
Q 697 4328 969 4595 
Q 1241 4863 1831 4863 
L 2375 4863 
z
" transform="scale(0.015625)"/>
     </defs>
     <use xlink:href="#DejaVuSans-2c"/>
     <use xlink:href="#DejaVuSans-50" transform="translate(29.5 0)"/>
     <use xlink:href="#DejaVuSans-44" transform="translate(126.90625 0)"/>
     <use xlink:href="#DejaVuSans-4a" transform="translate(188.1875 0)"/>
     <use xlink:href="#DejaVuSans-48" transform="translate(251.671875 0)"/>
     <use xlink:href="#DejaVuSans-3" transform="translate(313.203125 0)"/>
     <use xlink:href="#DejaVuSans-49" transform="translate(344.984375 0)"/>
     <use xlink:href="#DejaVuSans-52" transform="translate(380.1875 0)"/>
     <use xlink:href="#DejaVuSans-46" transform="translate(441.375 0)"/>
     <use xlink:href="#DejaVuSans-58" transform="translate(496.359375 0)"/>
     <use xlink:href="#DejaVuSans-56" transform="translate(559.734375 0)"/>
     <use xlink:href="#DejaVuSans-3" transform="translate(611.828125 0)"/>
     <use xlink:href="#DejaVuSans-44" transform="translate(643.609375 0)"/>
     <use xlink:href="#DejaVuSans-55" transform="translate(704.890625 0)"/>
     <use xlink:href="#DejaVuSans-52" transform="translate(743.796875 0)"/>
     <use xlink:href="#DejaVuSans-58" transform="translate(804.984375 0)"/>
     <use xlink:href="#DejaVuSans-51" transform="translate(868.359375 0)"/>
     <use xlink:href="#DejaVuSans-47" transform="translate(931.734375 0)"/>
     <use xlink:href="#DejaVuSans-3" transform="translate(995.21875 0)"/>
     <use xlink:href="#DejaVuSans-57" transform="translate(1027 0)"/>
     <use xlink:href="#DejaVuSans-4b" transform="translate(1066.203125 0)"/>
     <use xlink:href="#DejaVuSans-48" transform="translate(1129.578125 0)"/>
     <use xlink:href="#DejaVuSans-3" transform="translate(1191.109375 0)"/>
     <use xlink:href="#DejaVuSans-46" transform="translate(1222.890625 0)"/>
     <use xlink:href="#DejaVuSans-4c" transform="translate(1277.875 0)"/>
     <use xlink:href="#DejaVuSans-55" transform="translate(1305.65625 0)"/>
     <use xlink:href="#DejaVuSans-46" transform="translate(1344.5625 0)"/>
     <use xlink:href="#DejaVuSans-4f" transform="translate(1399.546875 0)"/>
     <use xlink:href="#DejaVuSans-48" transform="translate(1427.328125 0)"/>
    </g>
   </g>
   <g id="legend_2">
    <g id="line2d_45">
     <path d="M 454.689922 162.912656 
L 462.689922 162.912656 
L 470.689922 162.912656 
" style="fill: none; stroke: #4269d0; stroke-width: 1.6; stroke-linecap: square"/>
    </g>
    <g id="text_35">
     <!-- mode_match -->
     <g transform="translate(477.089922 165.712656) scale(0.08 -0.08)">
      <use xlink:href="#DejaVuSans-50"/>
      <use xlink:href="#DejaVuSans-52" transform="translate(97.40625 0)"/>
      <use xlink:href="#DejaVuSans-47" transform="translate(158.59375 0)"/>
      <use xlink:href="#DejaVuSans-48" transform="translate(222.078125 0)"/>
      <use xlink:href="#DejaVuSans-42" transform="translate(283.609375 0)"/>
      <use xlink:href="#DejaVuSans-50" transform="translate(333.609375 0)"/>
      <use xlink:href="#DejaVuSans-44" transform="translate(431.015625 0)"/>
      <use xlink:href="#DejaVuSans-57" transform="translate(492.296875 0)"/>
      <use xlink:href="#DejaVuSans-46" transform="translate(531.5 0)"/>
      <use xlink:href="#DejaVuSans-4b" transform="translate(586.484375 0)"/>
     </g>
    </g>
    <g id="line2d_46">
     <path d="M 454.689922 174.913281 
L 462.689922 174.913281 
L 470.689922 174.913281 
" style="fill: none; stroke: #efb118; stroke-width: 1.6; stroke-linecap: square"/>
    </g>
    <g id="text_36">
     <!-- allrad -->
     <g transform="translate(477.089922 177.713281) scale(0.08 -0.08)">
      <use xlink:href="#DejaVuSans-44"/>
      <use xlink:href="#DejaVuSans-4f" transform="translate(61.28125 0)"/>
      <use xlink:href="#DejaVuSans-4f" transform="translate(89.0625 0)"/>
      <use xlink:href="#DejaVuSans-55" transform="translate(116.84375 0)"/>
      <use xlink:href="#DejaVuSans-44" transform="translate(157.953125 0)"/>
      <use xlink:href="#DejaVuSans-47" transform="translate(219.234375 0)"/>
     </g>
    </g>
    <g id="line2d_47">
     <path d="M 454.689922 186.913906 
L 462.689922 186.913906 
L 470.689922 186.913906 
" style="fill: none; stroke: #ff725c; stroke-width: 1.6; stroke-linecap: square"/>
    </g>
    <g id="text_37">
     <!-- epad -->
     <g transform="translate(477.089922 189.713906) scale(0.08 -0.08)">
      <use xlink:href="#DejaVuSans-48"/>
      <use xlink:href="#DejaVuSans-53" transform="translate(61.53125 0)"/>
      <use xlink:href="#DejaVuSans-44" transform="translate(125.015625 0)"/>
      <use xlink:href="#DejaVuSans-47" transform="translate(186.296875 0)"/>
     </g>
    </g>
   </g>
  </g>
 </g>
 <defs>
  <clipPath id="p2c8c7adc11">
   <rect x="49.305469" y="22.318125" width="263.077656" height="176.517656"/>
  </clipPath>
  <clipPath id="pb3d4f4e76b">
   <rect x="360.345469" y="22.318125" width="263.077656" height="176.517656"/>
  </clipPath>
 </defs>
</svg>
