<?xml version="1.0" encoding="utf-8" standalone="no"?>
<!DOCTYPE svg PUBLIC "-//W3C//DTD SVG 1.1//EN"
  "http://www.w3.org/Graphics/SVG/1.1/DTD/svg11.dtd">
<svg xmlns:xlink="http://www.w3.org/1999/xlink" width="640.125937pt" height="222.636562pt" viewBox="0 0 640.125937 222.636562" xmlns="http://www.w3.org/2000/svg" version="1.1">
 <metadata>
  <rdf:RDF xmlns:dc="http://purl.org/dc/elements/1.1/" xmlns:cc="http://creativecommons.org/ns#" xmlns:rdf="http://www.w3.org/1999/02/22-rdf-syntax-ns#">
   <cc:Work>
    <dc:type rdf:resource="http://purl.org/dc/dcmitype/StillImage"/>
    <dc:format>image/svg+xml</dc:format>
    <dc:creator>
     <cc:Agent>
      <dc:title>Matplotlib v3.11.0, https://matplotlib.org/</dc:title>
     </cc:Agent>
    </dc:creator>
   </cc:Work>
  </rdf:RDF>
 </metadata>
 <defs>
  <style type="text/css">*{stroke-linejoin: round; stroke-linecap: butt}</style>
 </defs>
 <g id="figure_1">
  <g id="patch_1">
   <path d="M 0 222.636562 
L 640.125937 222.636562 
L 640.125937 0 
L 0 0 
z
" style="fill: #ffffff"/>
  </g>
  <g id="axes_1">
   <g id="patch_2">
    <path d="M 47.288281 184.435781 
L 311.553954 184.435781 
L 311.553954 22.318125 
L 47.288281 22.318125 
z
" style="fill: #ffffff"/>
   </g>
   <g id="matplotlib.axis_1">
    <g id="xtick_1">
     <g id="line2d_1">
      <defs>
       <path id="md184c609d4" d="M 0 0 
L 0 3.5 
" style="stroke: #000000; stroke-width: 0.8"/>
      </defs>
      <g>
       <use xlink:href="#md184c609d4" x="59.300357" y="184.435781" style="stroke: #000000; stroke-width: 0.8"/>
      </g>
     </g>
     <g id="text_1">
      <!-- 1 -->
      <g transform="translate(56.119107 199.033437) scale(0.1 -0.1)">
       <defs>
        <path id="DejaVuSans-14" d="M 794 531 
L 1825 531 
L 1825 4091 
L 703 3866 
L 703 4441 
L 1819 4666 
L 2450 4666 
L 2450 531 
L 3481 531 
L 3481 0 
L 794 0 
L 794 531 
z
" transform="scale(0.015625)"/>
       </defs>
       <use xlink:href="#DejaVuSans-14"/>
      </g>
     </g>
    </g>
    <g id="xtick_2">
     <g id="line2d_2">
      <g>
       <use xlink:href="#md184c609d4" x="119.360737" y="184.435781" style="stroke: #000000; stroke-width: 0.8"/>
      </g>
     </g>
     <g id="text_2">
      <!-- 2 -->
      <g transform="translate(116.179487 199.033437) scale(0.1 -0.1)">
       <defs>
        <path id="DejaVuSans-15" d="M 1228 531 
L 3431 531 
L 3431 0 
L 469 0 
L 469 531 
Q 828 903 1448 1529 
Q 2069 2156 2228 2338 
Q 2531 2678 2651 2914 
Q 2772 3150 2772 3378 
Q 2772 3750 2511 3984 
Q 2250 4219 1831 4219 
Q 1534 4219 1204 4116 
Q 875 4013 500 3803 
L 500 4441 
Q 881 4594 1212 4672 
Q 1544 4750 1819 4750 
Q 2544 4750 2975 4387 
Q 3406 4025 3406 3419 
Q 3406 3131 3298 2873 
Q 3191 2616 2906 2266 
Q 2828 2175 2409 1742 
Q 1991 1309 1228 531 
z
" transform="scale(0.015625)"/>
       </defs>
       <use xlink:href="#DejaVuSans-15"/>
      </g>
     </g>
    </g>
    <g id="xtick_3">
     <g id="line2d_3">
      <g>
       <use xlink:href="#md184c609d4" x="179.421118" y="184.435781" style="stroke: #000000; stroke-width: 0.8"/>
      </g>
     </g>
     <g id="text_3">
      <!-- 3 -->
      <g transform="translate(176.239868 199.033437) scale(0.1 -0.1)">
       <defs>
        <path id="DejaVuSans-16" d="M 2597 2516 
Q 3050 2419 3304 2112 
Q 3559 1806 3559 1356 
Q 3559 666 3084 287 
Q 2609 -91 1734 -91 
Q 1441 -91 1130 -33 
Q 819 25 488 141 
L 488 750 
Q 750 597 1062 519 
Q 1375 441 1716 441 
Q 2309 441 2620 675 
Q 2931 909 2931 1356 
Q 2931 1769 2642 2001 
Q 2353 2234 1838 2234 
L 1294 2234 
L 1294 2753 
L 1863 2753 
Q 2328 2753 2575 2939 
Q 2822 3125 2822 3475 
Q 2822 3834 2567 4026 
Q 2313 4219 1838 4219 
Q 1578 4219 1281 4162 
Q 984 4106 628 3988 
L 628 4550 
Q 988 4650 1302 4700 
Q 1616 4750 1894 4750 
Q 2613 4750 3031 4423 
Q 3450 4097 3450 3541 
Q 3450 3153 3228 2886 
Q 3006 2619 2597 2516 
z
" transform="scale(0.015625)"/>
       </defs>
       <use xlink:href="#DejaVuSans-16"/>
      </g>
     </g>
    </g>
    <g id="xtick_4">
     <g id="line2d_4">
      <g>
       <use xlink:href="#md184c609d4" x="239.481498" y="184.435781" style="stroke: #000000; stroke-width: 0.8"/>
      </g>
     </g>
     <g id="text_4">
      <!-- 4 -->
      <g transform="translate(236.300248 199.033437) scale(0.1 -0.1)">
       <defs>
        <path id="DejaVuSans-17" d="M 2419 4116 
L 825 1625 
L 2419 1625 
L 2419 4116 
z
M 2253 4666 
L 3047 4666 
L 3047 1625 
L 3713 1625 
L 3713 1100 
L 3047 1100 
L 3047 0 
L 2419 0 
L 2419 1100 
L 313 1100 
L 313 1709 
L 2253 4666 
z
" transform="scale(0.015625)"/>
       </defs>
       <use xlink:href="#DejaVuSans-17"/>
      </g>
     </g>
    </g>
    <g id="xtick_5">
     <g id="line2d_5">
      <g>
       <use xlink:href="#md184c609d4" x="299.541878" y="184.435781" style="stroke: #000000; stroke-width: 0.8"/>
      </g>
     </g>
     <g id="text_5">
      <!-- 5 -->
      <g transform="translate(296.360628 199.033437) scale(0.1 -0.1)">
       <defs>
        <path id="DejaVuSans-18" d="M 691 4666 
L 3169 4666 
L 3169 4134 
L 1269 4134 
L 1269 2991 
Q 1406 3038 1543 3061 
Q 1681 3084 1819 3084 
Q 2600 3084 3056 2656 
Q 3513 2228 3513 1497 
Q 3513 744 3044 326 
Q 2575 -91 1722 -91 
Q 1428 -91 1123 -41 
Q 819 9 494 109 
L 494 744 
Q 775 591 1075 516 
Q 1375 441 1709 441 
Q 2250 441 2565 725 
Q 2881 1009 2881 1497 
Q 2881 1984 2565 2268 
Q 2250 2553 1709 2553 
Q 1456 2553 1204 2497 
Q 953 2441 691 2322 
L 691 4666 
z
" transform="scale(0.015625)"/>
       </defs>
       <use xlink:href="#DejaVuSans-18"/>
      </g>
     </g>
    </g>
    <g id="text_6">
     <!-- ambisonic order -->
     <g transform="translate(139.029711 213.034219) scale(0.1 -0.1)">
      <defs>
       <path id="DejaVuSans-44" d="M 2194 1759 
Q 1497 1759 1228 1600 
Q 959 1441 959 1056 
Q 959 750 1161 570 
Q 1363 391 1709 391 
Q 2188 391 2477 730 
Q 2766 1069 2766 1631 
L 2766 1759 
L 2194 1759 
z
M 3341 1997 
L 3341 0 
L 2766 0 
L 2766 531 
Q 2569 213 2275 61 
Q 1981 -91 1556 -91 
Q 1019 -91 701 211 
Q 384 513 384 1019 
Q 384 1609 779 1909 
Q 1175 2209 1959 2209 
L 2766 2209 
L 2766 2266 
Q 2766 2663 2505 2880 
Q 2244 3097 1772 3097 
Q 1472 3097 1187 3025 
Q 903 2953 641 2809 
L 641 3341 
Q 956 3463 1253 3523 
Q 1550 3584 1831 3584 
Q 2591 3584 2966 3190 
Q 3341 2797 3341 1997 
z
" transform="scale(0.015625)"/>
       <path id="DejaVuSans-50" d="M 3328 2828 
Q 3544 3216 3844 3400 
Q 4144 3584 4550 3584 
Q 5097 3584 5394 3201 
Q 5691 2819 5691 2113 
L 5691 0 
L 5113 0 
L 5113 2094 
Q 5113 2597 4934 2840 
Q 4756 3084 4391 3084 
Q 3944 3084 3684 2787 
Q 3425 2491 3425 1978 
L 3425 0 
L 2847 0 
L 2847 2094 
Q 2847 2600 2669 2842 
Q 2491 3084 2119 3084 
Q 1678 3084 1418 2786 
Q 1159 2488 1159 1978 
L 1159 0 
L 581 0 
L 581 3500 
L 1159 3500 
L 1159 2956 
Q 1356 3278 1631 3431 
Q 1906 3584 2284 3584 
Q 2666 3584 2933 3390 
Q 3200 3197 3328 2828 
z
" transform="scale(0.015625)"/>
       <path id="DejaVuSans-45" d="M 3116 1747 
Q 3116 2381 2855 2742 
Q 2594 3103 2138 3103 
Q 1681 3103 1420 2742 
Q 1159 2381 1159 1747 
Q 1159 1113 1420 752 
Q 1681 391 2138 391 
Q 2594 391 2855 752 
Q 3116 1113 3116 1747 
z
M 1159 2969 
Q 1341 3281 1617 3432 
Q 1894 3584 2278 3584 
Q 2916 3584 3314 3078 
Q 3713 2572 3713 1747 
Q 3713 922 3314 415 
Q 2916 -91 2278 -91 
Q 1894 -91 1617 61 
Q 1341 213 1159 525 
L 1159 0 
L 581 0 
L 581 4863 
L 1159 4863 
L 1159 2969 
z
" transform="scale(0.015625)"/>
       <path id="DejaVuSans-4c" d="M 603 3500 
L 1178 3500 
L 1178 0 
L 603 0 
L 603 3500 
z
M 603 4863 
L 1178 4863 
L 1178 4134 
L 603 4134 
L 603 4863 
z
" transform="scale(0.015625)"/>
       <path id="DejaVuSans-56" d="M 2834 3397 
L 2834 2853 
Q 2591 2978 2328 3040 
Q 2066 3103 1784 3103 
Q 1356 3103 1142 2972 
Q 928 2841 928 2578 
Q 928 2378 1081 2264 
Q 1234 2150 1697 2047 
L 1894 2003 
Q 2506 1872 2764 1633 
Q 3022 1394 3022 966 
Q 3022 478 2636 193 
Q 2250 -91 1575 -91 
Q 1294 -91 989 -36 
Q 684 19 347 128 
L 347 722 
Q 666 556 975 473 
Q 1284 391 1588 391 
Q 1994 391 2212 530 
Q 2431 669 2431 922 
Q 2431 1156 2273 1281 
Q 2116 1406 1581 1522 
L 1381 1569 
Q 847 1681 609 1914 
Q 372 2147 372 2553 
Q 372 3047 722 3315 
Q 1072 3584 1716 3584 
Q 2034 3584 2315 3537 
Q 2597 3491 2834 3397 
z
" transform="scale(0.015625)"/>
       <path id="DejaVuSans-52" d="M 1959 3097 
Q 1497 3097 1228 2736 
Q 959 2375 959 1747 
Q 959 1119 1226 758 
Q 1494 397 1959 397 
Q 2419 397 2687 759 
Q 2956 1122 2956 1747 
Q 2956 2369 2687 2733 
Q 2419 3097 1959 3097 
z
M 1959 3584 
Q 2709 3584 3137 3096 
Q 3566 2609 3566 1747 
Q 3566 888 3137 398 
Q 2709 -91 1959 -91 
Q 1206 -91 779 398 
Q 353 888 353 1747 
Q 353 2609 779 3096 
Q 1206 3584 1959 3584 
z
" transform="scale(0.015625)"/>
       <path id="DejaVuSans-51" d="M 3513 2113 
L 3513 0 
L 2938 0 
L 2938 2094 
Q 2938 2591 2744 2837 
Q 2550 3084 2163 3084 
Q 1697 3084 1428 2787 
Q 1159 2491 1159 1978 
L 1159 0 
L 581 0 
L 581 3500 
L 1159 3500 
L 1159 2956 
Q 1366 3272 1645 3428 
Q 1925 3584 2291 3584 
Q 2894 3584 3203 3211 
Q 3513 2838 3513 2113 
z
" transform="scale(0.015625)"/>
       <path id="DejaVuSans-46" d="M 3122 3366 
L 3122 2828 
Q 2878 2963 2633 3030 
Q 2388 3097 2138 3097 
Q 1578 3097 1268 2742 
Q 959 2388 959 1747 
Q 959 1106 1268 751 
Q 1578 397 2138 397 
Q 2388 397 2633 464 
Q 2878 531 3122 666 
L 3122 134 
Q 2881 22 2623 -34 
Q 2366 -91 2075 -91 
Q 1284 -91 818 406 
Q 353 903 353 1747 
Q 353 2603 823 3093 
Q 1294 3584 2113 3584 
Q 2378 3584 2631 3529 
Q 2884 3475 3122 3366 
z
" transform="scale(0.015625)"/>
       <path id="DejaVuSans-3" transform="scale(0.015625)"/>
       <path id="DejaVuSans-55" d="M 2631 2963 
Q 2534 3019 2420 3045 
Q 2306 3072 2169 3072 
Q 1681 3072 1420 2755 
Q 1159 2438 1159 1844 
L 1159 0 
L 581 0 
L 581 3500 
L 1159 3500 
L 1159 2956 
Q 1341 3275 1631 3429 
Q 1922 3584 2338 3584 
Q 2397 3584 2469 3576 
Q 2541 3569 2628 3553 
L 2631 2963 
z
" transform="scale(0.015625)"/>
       <path id="DejaVuSans-47" d="M 2906 2969 
L 2906 4863 
L 3481 4863 
L 3481 0 
L 2906 0 
L 2906 525 
Q 2725 213 2448 61 
Q 2172 -91 1784 -91 
Q 1150 -91 751 415 
Q 353 922 353 1747 
Q 353 2572 751 3078 
Q 1150 3584 1784 3584 
Q 2172 3584 2448 3432 
Q 2725 3281 2906 2969 
z
M 947 1747 
Q 947 1113 1208 752 
Q 1469 391 1925 391 
Q 2381 391 2643 752 
Q 2906 1113 2906 1747 
Q 2906 2381 2643 2742 
Q 2381 3103 1925 3103 
Q 1469 3103 1208 2742 
Q 947 2381 947 1747 
z
" transform="scale(0.015625)"/>
       <path id="DejaVuSans-48" d="M 3597 1894 
L 3597 1613 
L 953 1613 
Q 991 1019 1311 708 
Q 1631 397 2203 397 
Q 2534 397 2845 478 
Q 3156 559 3463 722 
L 3463 178 
Q 3153 47 2828 -22 
Q 2503 -91 2169 -91 
Q 1331 -91 842 396 
Q 353 884 353 1716 
Q 353 2575 817 3079 
Q 1281 3584 2069 3584 
Q 2775 3584 3186 3129 
Q 3597 2675 3597 1894 
z
M 3022 2063 
Q 3016 2534 2758 2815 
Q 2500 3097 2075 3097 
Q 1594 3097 1305 2825 
Q 1016 2553 972 2059 
L 3022 2063 
z
" transform="scale(0.015625)"/>
      </defs>
      <use xlink:href="#DejaVuSans-44"/>
      <use xlink:href="#DejaVuSans-50" transform="translate(61.28125 0)"/>
      <use xlink:href="#DejaVuSans-45" transform="translate(158.6875 0)"/>
      <use xlink:href="#DejaVuSans-4c" transform="translate(222.171875 0)"/>
      <use xlink:href="#DejaVuSans-56" transform="translate(249.953125 0)"/>
      <use xlink:href="#DejaVuSans-52" transform="translate(302.046875 0)"/>
      <use xlink:href="#DejaVuSans-51" transform="translate(363.234375 0)"/>
      <use xlink:href="#DejaVuSans-4c" transform="translate(426.609375 0)"/>
      <use xlink:href="#DejaVuSans-46" transform="translate(454.390625 0)"/>
      <use xlink:href="#DejaVuSans-3" transform="translate(509.375 0)"/>
      <use xlink:href="#DejaVuSans-52" transform="translate(541.15625 0)"/>
      <use xlink:href="#DejaVuSans-55" transform="translate(602.34375 0)"/>
      <use xlink:href="#DejaVuSans-47" transform="translate(641.703125 0)"/>
      <use xlink:href="#DejaVuSans-48" transform="translate(705.1875 0)"/>
      <use xlink:href="#DejaVuSans-55" transform="translate(766.71875 0)"/>
     </g>
    </g>
   </g>
   <g id="matplotlib.axis_2">
    <g id="ytick_1">
     <g id="line2d_6">
      <defs>
       <path id="m895ca69d98" d="M 0 0 
L -3.5 0 
" style="stroke: #000000; stroke-width: 0.8"/>
      </defs>
      <g>
       <use xlink:href="#m895ca69d98" x="47.288281" y="184.435781" style="stroke: #000000; stroke-width: 0.8"/>
      </g>
     </g>
     <g id="text_7">
      <!-- 0 -->
      <g transform="translate(33.925781 188.234609) scale(0.1 -0.1)">
       <defs>
        <path id="DejaVuSans-13" d="M 2034 4250 
Q 1547 4250 1301 3770 
Q 1056 3291 1056 2328 
Q 1056 1369 1301 889 
Q 1547 409 2034 409 
Q 2525 409 2770 889 
Q 3016 1369 3016 2328 
Q 3016 3291 2770 3770 
Q 2525 4250 2034 4250 
z
M 2034 4750 
Q 2819 4750 3233 4129 
Q 3647 3509 3647 2328 
Q 3647 1150 3233 529 
Q 2819 -91 2034 -91 
Q 1250 -91 836 529 
Q 422 1150 422 2328 
Q 422 3509 836 4129 
Q 1250 4750 2034 4750 
z
" transform="scale(0.015625)"/>
       </defs>
       <use xlink:href="#DejaVuSans-13"/>
      </g>
     </g>
    </g>
    <g id="ytick_2">
     <g id="line2d_7">
      <g>
       <use xlink:href="#m895ca69d98" x="47.288281" y="161.91944" style="stroke: #000000; stroke-width: 0.8"/>
      </g>
     </g>
     <g id="text_8">
      <!-- 25 -->
      <g transform="translate(27.563281 165.718268) scale(0.1 -0.1)">
       <use xlink:href="#DejaVuSans-15"/>
       <use xlink:href="#DejaVuSans-18" transform="translate(63.625 0)"/>
      </g>
     </g>
    </g>
    <g id="ytick_3">
     <g id="line2d_8">
      <g>
       <use xlink:href="#m895ca69d98" x="47.288281" y="139.403099" style="stroke: #000000; stroke-width: 0.8"/>
      </g>
     </g>
     <g id="text_9">
      <!-- 50 -->
      <g transform="translate(27.563281 143.201927) scale(0.1 -0.1)">
       <use xlink:href="#DejaVuSans-18"/>
       <use xlink:href="#DejaVuSans-13" transform="translate(63.625 0)"/>
      </g>
     </g>
    </g>
    <g id="ytick_4">
     <g id="line2d_9">
      <g>
       <use xlink:href="#m895ca69d98" x="47.288281" y="116.886758" style="stroke: #000000; stroke-width: 0.8"/>
      </g>
     </g>
     <g id="text_10">
      <!-- 75 -->
      <g transform="translate(27.563281 120.685586) scale(0.1 -0.1)">
       <defs>
        <path id="DejaVuSans-1a" d="M 525 4666 
L 3525 4666 
L 3525 4397 
L 1831 0 
L 1172 0 
L 2766 4134 
L 525 4134 
L 525 4666 
z
" transform="scale(0.015625)"/>
       </defs>
       <use xlink:href="#DejaVuSans-1a"/>
       <use xlink:href="#DejaVuSans-18" transform="translate(63.625 0)"/>
      </g>
     </g>
    </g>
    <g id="ytick_5">
     <g id="line2d_10">
      <g>
       <use xlink:href="#m895ca69d98" x="47.288281" y="94.370417" style="stroke: #000000; stroke-width: 0.8"/>
      </g>
     </g>
     <g id="text_11">
      <!-- 100 -->
      <g transform="translate(21.200781 98.169245) scale(0.1 -0.1)">
       <use xlink:href="#DejaVuSans-14"/>
       <use xlink:href="#DejaVuSans-13" transform="translate(63.625 0)"/>
       <use xlink:href="#DejaVuSans-13" transform="translate(127.25 0)"/>
      </g>
     </g>
    </g>
    <g id="ytick_6">
     <g id="line2d_11">
      <g>
       <use xlink:href="#m895ca69d98" x="47.288281" y="71.854076" style="stroke: #000000; stroke-width: 0.8"/>
      </g>
     </g>
     <g id="text_12">
      <!-- 125 -->
      <g transform="translate(21.200781 75.652904) scale(0.1 -0.1)">
       <use xlink:href="#DejaVuSans-14"/>
       <use xlink:href="#DejaVuSans-15" transform="translate(63.625 0)"/>
       <use xlink:href="#DejaVuSans-18" transform="translate(127.25 0)"/>
      </g>
     </g>
    </g>
    <g id="ytick_7">
     <g id="line2d_12">
      <g>
       <use xlink:href="#m895ca69d98" x="47.288281" y="49.337734" style="stroke: #000000; stroke-width: 0.8"/>
      </g>
     </g>
     <g id="text_13">
      <!-- 150 -->
      <g transform="translate(21.200781 53.136562) scale(0.1 -0.1)">
       <use xlink:href="#DejaVuSans-14"/>
       <use xlink:href="#DejaVuSans-18" transform="translate(63.625 0)"/>
       <use xlink:href="#DejaVuSans-13" transform="translate(127.25 0)"/>
      </g>
     </g>
    </g>
    <g id="ytick_8">
     <g id="line2d_13">
      <g>
       <use xlink:href="#m895ca69d98" x="47.288281" y="26.821393" style="stroke: #000000; stroke-width: 0.8"/>
      </g>
     </g>
     <g id="text_14">
      <!-- 175 -->
      <g transform="translate(21.200781 30.620221) scale(0.1 -0.1)">
       <use xlink:href="#DejaVuSans-14"/>
       <use xlink:href="#DejaVuSans-1a" transform="translate(63.625 0)"/>
       <use xlink:href="#DejaVuSans-18" transform="translate(127.25 0)"/>
      </g>
     </g>
    </g>
    <g id="text_15">
     <!-- −3 dB beamwidth (°) -->
     <g transform="translate(14.798437 156.487891) rotate(-90) scale(0.1 -0.1)">
      <defs>
       <path id="DejaVuSans-c9c" d="M 678 2272 
L 4684 2272 
L 4684 1741 
L 678 1741 
L 678 2272 
z
" transform="scale(0.015625)"/>
       <path id="DejaVuSans-25" d="M 1259 2228 
L 1259 519 
L 2272 519 
Q 2781 519 3026 730 
Q 3272 941 3272 1375 
Q 3272 1813 3026 2020 
Q 2781 2228 2272 2228 
L 1259 2228 
z
M 1259 4147 
L 1259 2741 
L 2194 2741 
Q 2656 2741 2882 2914 
Q 3109 3088 3109 3444 
Q 3109 3797 2882 3972 
Q 2656 4147 2194 4147 
L 1259 4147 
z
M 628 4666 
L 2241 4666 
Q 2963 4666 3353 4366 
Q 3744 4066 3744 3513 
Q 3744 3084 3544 2831 
Q 3344 2578 2956 2516 
Q 3422 2416 3680 2098 
Q 3938 1781 3938 1306 
Q 3938 681 3513 340 
Q 3088 0 2303 0 
L 628 0 
L 628 4666 
z
" transform="scale(0.015625)"/>
       <path id="DejaVuSans-5a" d="M 269 3500 
L 844 3500 
L 1563 769 
L 2278 3500 
L 2956 3500 
L 3675 769 
L 4391 3500 
L 4966 3500 
L 4050 0 
L 3372 0 
L 2619 2869 
L 1863 0 
L 1184 0 
L 269 3500 
z
" transform="scale(0.015625)"/>
       <path id="DejaVuSans-57" d="M 1172 4494 
L 1172 3500 
L 2356 3500 
L 2356 3053 
L 1172 3053 
L 1172 1153 
Q 1172 725 1289 603 
Q 1406 481 1766 481 
L 2356 481 
L 2356 0 
L 1766 0 
Q 1100 0 847 248 
Q 594 497 594 1153 
L 594 3053 
L 172 3053 
L 172 3500 
L 594 3500 
L 594 4494 
L 1172 4494 
z
" transform="scale(0.015625)"/>
       <path id="DejaVuSans-4b" d="M 3513 2113 
L 3513 0 
L 2938 0 
L 2938 2094 
Q 2938 2591 2744 2837 
Q 2550 3084 2163 3084 
Q 1697 3084 1428 2787 
Q 1159 2491 1159 1978 
L 1159 0 
L 581 0 
L 581 4863 
L 1159 4863 
L 1159 2956 
Q 1366 3272 1645 3428 
Q 1925 3584 2291 3584 
Q 2894 3584 3203 3211 
Q 3513 2838 3513 2113 
z
" transform="scale(0.015625)"/>
       <path id="DejaVuSans-b" d="M 1984 4856 
Q 1566 4138 1362 3434 
Q 1159 2731 1159 2009 
Q 1159 1288 1364 580 
Q 1569 -128 1984 -844 
L 1484 -844 
Q 1016 -109 783 600 
Q 550 1309 550 2009 
Q 550 2706 781 3412 
Q 1013 4119 1484 4856 
L 1984 4856 
z
" transform="scale(0.015625)"/>
       <path id="DejaVuSans-72" d="M 1600 4347 
Q 1350 4347 1178 4173 
Q 1006 4000 1006 3750 
Q 1006 3503 1178 3333 
Q 1350 3163 1600 3163 
Q 1850 3163 2022 3333 
Q 2194 3503 2194 3750 
Q 2194 3997 2020 4172 
Q 1847 4347 1600 4347 
z
M 1600 4750 
Q 1800 4750 1984 4673 
Q 2169 4597 2303 4453 
Q 2447 4313 2519 4134 
Q 2591 3956 2591 3750 
Q 2591 3338 2302 3052 
Q 2013 2766 1594 2766 
Q 1172 2766 890 3047 
Q 609 3328 609 3750 
Q 609 4169 896 4459 
Q 1184 4750 1600 4750 
z
" transform="scale(0.015625)"/>
       <path id="DejaVuSans-c" d="M 513 4856 
L 1013 4856 
Q 1481 4119 1714 3412 
Q 1947 2706 1947 2009 
Q 1947 1309 1714 600 
Q 1481 -109 1013 -844 
L 513 -844 
Q 928 -128 1133 580 
Q 1338 1288 1338 2009 
Q 1338 2731 1133 3434 
Q 928 4138 513 4856 
z
" transform="scale(0.015625)"/>
      </defs>
      <use xlink:href="#DejaVuSans-c9c"/>
      <use xlink:href="#DejaVuSans-16" transform="translate(83.796875 0)"/>
      <use xlink:href="#DejaVuSans-3" transform="translate(147.421875 0)"/>
      <use xlink:href="#DejaVuSans-47" transform="translate(179.203125 0)"/>
      <use xlink:href="#DejaVuSans-25" transform="translate(242.6875 0)"/>
      <use xlink:href="#DejaVuSans-3" transform="translate(311.296875 0)"/>
      <use xlink:href="#DejaVuSans-45" transform="translate(343.078125 0)"/>
      <use xlink:href="#DejaVuSans-48" transform="translate(406.5625 0)"/>
      <use xlink:href="#DejaVuSans-44" transform="translate(468.09375 0)"/>
      <use xlink:href="#DejaVuSans-50" transform="translate(529.375 0)"/>
      <use xlink:href="#DejaVuSans-5a" transform="translate(626.78125 0)"/>
      <use xlink:href="#DejaVuSans-4c" transform="translate(708.5625 0)"/>
      <use xlink:href="#DejaVuSans-47" transform="translate(736.34375 0)"/>
      <use xlink:href="#DejaVuSans-57" transform="translate(799.828125 0)"/>
      <use xlink:href="#DejaVuSans-4b" transform="translate(839.03125 0)"/>
      <use xlink:href="#DejaVuSans-3" transform="translate(902.40625 0)"/>
      <use xlink:href="#DejaVuSans-b" transform="translate(934.1875 0)"/>
      <use xlink:href="#DejaVuSans-72" transform="translate(973.203125 0)"/>
      <use xlink:href="#DejaVuSans-c" transform="translate(1023.203125 0)"/>
     </g>
    </g>
   </g>
   <g id="line2d_14">
    <path d="M 59.300357 43.033159 
L 119.360737 93.92009 
L 179.421118 116.436431 
L 239.481498 129.946236 
L 299.541878 138.952772 
" clip-path="url(#pc07c02462e)" style="fill: none; stroke: #4269d0; stroke-width: 1.8; stroke-linecap: square"/>
    <defs>
     <path id="mf0ddd7ff9e" d="M 0 3 
C 0.795609 3 1.55874 2.683901 2.12132 2.12132 
C 2.683901 1.55874 3 0.795609 3 0 
C 3 -0.795609 2.683901 -1.55874 2.12132 -2.12132 
C 1.55874 -2.683901 0.795609 -3 0 -3 
C -0.795609 -3 -1.55874 -2.683901 -2.12132 -2.12132 
C -2.683901 -1.55874 -3 -0.795609 -3 0 
C -3 0.795609 -2.683901 1.55874 -2.12132 2.12132 
C -1.55874 2.683901 -0.795609 3 0 3 
z
" style="stroke: #4269d0"/>
    </defs>
    <g clip-path="url(#pc07c02462e)">
     <use xlink:href="#mf0ddd7ff9e" x="59.300357" y="43.033159" style="fill: #4269d0; stroke: #4269d0"/>
     <use xlink:href="#mf0ddd7ff9e" x="119.360737" y="93.92009" style="fill: #4269d0; stroke: #4269d0"/>
     <use xlink:href="#mf0ddd7ff9e" x="179.421118" y="116.436431" style="fill: #4269d0; stroke: #4269d0"/>
     <use xlink:href="#mf0ddd7ff9e" x="239.481498" y="129.946236" style="fill: #4269d0; stroke: #4269d0"/>
     <use xlink:href="#mf0ddd7ff9e" x="299.541878" y="138.952772" style="fill: #4269d0; stroke: #4269d0"/>
    </g>
   </g>
   <g id="patch_3">
    <path d="M 47.288281 184.435781 
L 47.288281 22.318125 
" style="fill: none; stroke: #000000; stroke-width: 0.8; stroke-linejoin: miter; stroke-linecap: square"/>
   </g>
   <g id="patch_4">
    <path d="M 47.288281 184.435781 
L 311.553954 184.435781 
" style="fill: none; stroke: #000000; stroke-width: 0.8; stroke-linejoin: miter; stroke-linecap: square"/>
   </g>
   <g id="text_16">
    <!-- 157° -->
    <g transform="translate(67.300357 39.033159) scale(0.08 -0.08)">
     <use xlink:href="#DejaVuSans-14"/>
     <use xlink:href="#DejaVuSans-18" transform="translate(63.625 0)"/>
     <use xlink:href="#DejaVuSans-1a" transform="translate(127.25 0)"/>
     <use xlink:href="#DejaVuSans-72" transform="translate(190.875 0)"/>
    </g>
   </g>
   <g id="text_17">
    <!-- 101° -->
    <g transform="translate(127.360737 89.92009) scale(0.08 -0.08)">
     <use xlink:href="#DejaVuSans-14"/>
     <use xlink:href="#DejaVuSans-13" transform="translate(63.625 0)"/>
     <use xlink:href="#DejaVuSans-14" transform="translate(127.25 0)"/>
     <use xlink:href="#DejaVuSans-72" transform="translate(190.875 0)"/>
    </g>
   </g>
   <g id="text_18">
    <!-- 75° -->
    <g transform="translate(187.421118 112.436431) scale(0.08 -0.08)">
     <use xlink:href="#DejaVuSans-1a"/>
     <use xlink:href="#DejaVuSans-18" transform="translate(63.625 0)"/>
     <use xlink:href="#DejaVuSans-72" transform="translate(127.25 0)"/>
    </g>
   </g>
   <g id="text_19">
    <!-- 60° -->
    <g transform="translate(247.481498 125.946236) scale(0.08 -0.08)">
     <defs>
      <path id="DejaVuSans-19" d="M 2113 2584 
Q 1688 2584 1439 2293 
Q 1191 2003 1191 1497 
Q 1191 994 1439 701 
Q 1688 409 2113 409 
Q 2538 409 2786 701 
Q 3034 994 3034 1497 
Q 3034 2003 2786 2293 
Q 2538 2584 2113 2584 
z
M 3366 4563 
L 3366 3988 
Q 3128 4100 2886 4159 
Q 2644 4219 2406 4219 
Q 1781 4219 1451 3797 
Q 1122 3375 1075 2522 
Q 1259 2794 1537 2939 
Q 1816 3084 2150 3084 
Q 2853 3084 3261 2657 
Q 3669 2231 3669 1497 
Q 3669 778 3244 343 
Q 2819 -91 2113 -91 
Q 1303 -91 875 529 
Q 447 1150 447 2328 
Q 447 3434 972 4092 
Q 1497 4750 2381 4750 
Q 2619 4750 2861 4703 
Q 3103 4656 3366 4563 
z
" transform="scale(0.015625)"/>
     </defs>
     <use xlink:href="#DejaVuSans-19"/>
     <use xlink:href="#DejaVuSans-13" transform="translate(63.625 0)"/>
     <use xlink:href="#DejaVuSans-72" transform="translate(127.25 0)"/>
    </g>
   </g>
   <g id="text_20">
    <!-- 51° -->
    <g transform="translate(307.541878 134.952772) scale(0.08 -0.08)">
     <use xlink:href="#DejaVuSans-18"/>
     <use xlink:href="#DejaVuSans-14" transform="translate(63.625 0)"/>
     <use xlink:href="#DejaVuSans-72" transform="translate(127.25 0)"/>
    </g>
   </g>
   <g id="text_21">
    <!-- What order buys: sharpness -->
    <g transform="translate(95.00018 16.318125) scale(0.12 -0.12)">
     <defs>
      <path id="DejaVuSans-3a" d="M 213 4666 
L 850 4666 
L 1831 722 
L 2809 4666 
L 3519 4666 
L 4500 722 
L 5478 4666 
L 6119 4666 
L 4947 0 
L 4153 0 
L 3169 4050 
L 2175 0 
L 1381 0 
L 213 4666 
z
" transform="scale(0.015625)"/>
      <path id="DejaVuSans-58" d="M 544 1381 
L 544 3500 
L 1119 3500 
L 1119 1403 
Q 1119 906 1312 657 
Q 1506 409 1894 409 
Q 2359 409 2629 706 
Q 2900 1003 2900 1516 
L 2900 3500 
L 3475 3500 
L 3475 0 
L 2900 0 
L 2900 538 
Q 2691 219 2414 64 
Q 2138 -91 1772 -91 
Q 1169 -91 856 284 
Q 544 659 544 1381 
z
M 1991 3584 
L 1991 3584 
z
" transform="scale(0.015625)"/>
      <path id="DejaVuSans-5c" d="M 2059 -325 
Q 1816 -950 1584 -1140 
Q 1353 -1331 966 -1331 
L 506 -1331 
L 506 -850 
L 844 -850 
Q 1081 -850 1212 -737 
Q 1344 -625 1503 -206 
L 1606 56 
L 191 3500 
L 800 3500 
L 1894 763 
L 2988 3500 
L 3597 3500 
L 2059 -325 
z
" transform="scale(0.015625)"/>
      <path id="DejaVuSans-1d" d="M 750 794 
L 1409 794 
L 1409 0 
L 750 0 
L 750 794 
z
M 750 3309 
L 1409 3309 
L 1409 2516 
L 750 2516 
L 750 3309 
z
" transform="scale(0.015625)"/>
      <path id="DejaVuSans-53" d="M 1159 525 
L 1159 -1331 
L 581 -1331 
L 581 3500 
L 1159 3500 
L 1159 2969 
Q 1341 3281 1617 3432 
Q 1894 3584 2278 3584 
Q 2916 3584 3314 3078 
Q 3713 2572 3713 1747 
Q 3713 922 3314 415 
Q 2916 -91 2278 -91 
Q 1894 -91 1617 61 
Q 1341 213 1159 525 
z
M 3116 1747 
Q 3116 2381 2855 2742 
Q 2594 3103 2138 3103 
Q 1681 3103 1420 2742 
Q 1159 2381 1159 1747 
Q 1159 1113 1420 752 
Q 1681 391 2138 391 
Q 2594 391 2855 752 
Q 3116 1113 3116 1747 
z
" transform="scale(0.015625)"/>
     </defs>
     <use xlink:href="#DejaVuSans-3a"/>
     <use xlink:href="#DejaVuSans-4b" transform="translate(98.875 0)"/>
     <use xlink:href="#DejaVuSans-44" transform="translate(162.25 0)"/>
     <use xlink:href="#DejaVuSans-57" transform="translate(223.53125 0)"/>
     <use xlink:href="#DejaVuSans-3" transform="translate(262.734375 0)"/>
     <use xlink:href="#DejaVuSans-52" transform="translate(294.515625 0)"/>
     <use xlink:href="#DejaVuSans-55" transform="translate(355.703125 0)"/>
     <use xlink:href="#DejaVuSans-47" transform="translate(395.0625 0)"/>
     <use xlink:href="#DejaVuSans-48" transform="translate(458.546875 0)"/>
     <use xlink:href="#DejaVuSans-55" transform="translate(520.078125 0)"/>
     <use xlink:href="#DejaVuSans-3" transform="translate(561.1875 0)"/>
     <use xlink:href="#DejaVuSans-45" transform="translate(592.96875 0)"/>
     <use xlink:href="#DejaVuSans-58" transform="translate(656.453125 0)"/>
     <use xlink:href="#DejaVuSans-5c" transform="translate(719.828125 0)"/>
     <use xlink:href="#DejaVuSans-56" transform="translate(779.015625 0)"/>
     <use xlink:href="#DejaVuSans-1d" transform="translate(831.109375 0)"/>
     <use xlink:href="#DejaVuSans-3" transform="translate(864.796875 0)"/>
     <use xlink:href="#DejaVuSans-56" transform="translate(896.578125 0)"/>
     <use xlink:href="#DejaVuSans-4b" transform="translate(948.671875 0)"/>
     <use xlink:href="#DejaVuSans-44" transform="translate(1012.046875 0)"/>
     <use xlink:href="#DejaVuSans-55" transform="translate(1073.328125 0)"/>
     <use xlink:href="#DejaVuSans-53" transform="translate(1114.4375 0)"/>
     <use xlink:href="#DejaVuSans-51" transform="translate(1177.921875 0)"/>
     <use xlink:href="#DejaVuSans-48" transform="translate(1241.296875 0)"/>
     <use xlink:href="#DejaVuSans-56" transform="translate(1302.828125 0)"/>
     <use xlink:href="#DejaVuSans-56" transform="translate(1354.921875 0)"/>
    </g>
   </g>
  </g>
  <g id="axes_2">
   <g id="patch_5">
    <path d="M 368.660265 184.435781 
L 632.925938 184.435781 
L 632.925938 22.318125 
L 368.660265 22.318125 
z
" style="fill: #ffffff"/>
   </g>
   <g id="patch_6">
    <path d="M 380.672341 184.435781 
L 412.008191 184.435781 
L 412.008191 167.280474 
L 380.672341 167.280474 
z
" clip-path="url(#p42dcb6c36d)" style="fill: #efb118"/>
   </g>
   <g id="patch_7">
    <path d="M 432.898758 184.435781 
L 464.234609 184.435781 
L 464.234609 145.836339 
L 432.898758 145.836339 
z
" clip-path="url(#p42dcb6c36d)" style="fill: #efb118"/>
   </g>
   <g id="patch_8">
    <path d="M 485.125176 184.435781 
L 516.461026 184.435781 
L 516.461026 115.814551 
L 485.125176 115.814551 
z
" clip-path="url(#p42dcb6c36d)" style="fill: #efb118"/>
   </g>
   <g id="patch_9">
    <path d="M 537.351593 184.435781 
L 568.687444 184.435781 
L 568.687444 77.215109 
L 537.351593 77.215109 
z
" clip-path="url(#p42dcb6c36d)" style="fill: #efb118"/>
   </g>
   <g id="patch_10">
    <path d="M 589.578011 184.435781 
L 620.913861 184.435781 
L 620.913861 30.038013 
L 589.578011 30.038013 
z
" clip-path="url(#p42dcb6c36d)" style="fill: #efb118"/>
   </g>
   <g id="matplotlib.axis_3">
    <g id="xtick_6">
     <g id="line2d_15">
      <g>
       <use xlink:href="#md184c609d4" x="396.340266" y="184.435781" style="stroke: #000000; stroke-width: 0.8"/>
      </g>
     </g>
     <g id="text_22">
      <!-- 1 -->
      <g transform="translate(393.159016 199.033437) scale(0.1 -0.1)">
       <use xlink:href="#DejaVuSans-14"/>
      </g>
     </g>
    </g>
    <g id="xtick_7">
     <g id="line2d_16">
      <g>
       <use xlink:href="#md184c609d4" x="448.566684" y="184.435781" style="stroke: #000000; stroke-width: 0.8"/>
      </g>
     </g>
     <g id="text_23">
      <!-- 2 -->
      <g transform="translate(445.385434 199.033437) scale(0.1 -0.1)">
       <use xlink:href="#DejaVuSans-15"/>
      </g>
     </g>
    </g>
    <g id="xtick_8">
     <g id="line2d_17">
      <g>
       <use xlink:href="#md184c609d4" x="500.793101" y="184.435781" style="stroke: #000000; stroke-width: 0.8"/>
      </g>
     </g>
     <g id="text_24">
      <!-- 3 -->
      <g transform="translate(497.611851 199.033437) scale(0.1 -0.1)">
       <use xlink:href="#DejaVuSans-16"/>
      </g>
     </g>
    </g>
    <g id="xtick_9">
     <g id="line2d_18">
      <g>
       <use xlink:href="#md184c609d4" x="553.019519" y="184.435781" style="stroke: #000000; stroke-width: 0.8"/>
      </g>
     </g>
     <g id="text_25">
      <!-- 4 -->
      <g transform="translate(549.838269 199.033437) scale(0.1 -0.1)">
       <use xlink:href="#DejaVuSans-17"/>
      </g>
     </g>
    </g>
    <g id="xtick_10">
     <g id="line2d_19">
      <g>
       <use xlink:href="#md184c609d4" x="605.245936" y="184.435781" style="stroke: #000000; stroke-width: 0.8"/>
      </g>
     </g>
     <g id="text_26">
      <!-- 5 -->
      <g transform="translate(602.064686 199.033437) scale(0.1 -0.1)">
       <use xlink:href="#DejaVuSans-18"/>
      </g>
     </g>
    </g>
    <g id="text_27">
     <!-- ambisonic order -->
     <g transform="translate(460.401695 213.034219) scale(0.1 -0.1)">
      <use xlink:href="#DejaVuSans-44"/>
      <use xlink:href="#DejaVuSans-50" transform="translate(61.28125 0)"/>
      <use xlink:href="#DejaVuSans-45" transform="translate(158.6875 0)"/>
      <use xlink:href="#DejaVuSans-4c" transform="translate(222.171875 0)"/>
      <use xlink:href="#DejaVuSans-56" transform="translate(249.953125 0)"/>
      <use xlink:href="#DejaVuSans-52" transform="translate(302.046875 0)"/>
      <use xlink:href="#DejaVuSans-51" transform="translate(363.234375 0)"/>
      <use xlink:href="#DejaVuSans-4c" transform="translate(426.609375 0)"/>
      <use xlink:href="#DejaVuSans-46" transform="translate(454.390625 0)"/>
      <use xlink:href="#DejaVuSans-3" transform="translate(509.375 0)"/>
      <use xlink:href="#DejaVuSans-52" transform="translate(541.15625 0)"/>
      <use xlink:href="#DejaVuSans-55" transform="translate(602.34375 0)"/>
      <use xlink:href="#DejaVuSans-47" transform="translate(641.703125 0)"/>
      <use xlink:href="#DejaVuSans-48" transform="translate(705.1875 0)"/>
      <use xlink:href="#DejaVuSans-55" transform="translate(766.71875 0)"/>
     </g>
    </g>
   </g>
   <g id="matplotlib.axis_4">
    <g id="ytick_9">
     <g id="line2d_20">
      <g>
       <use xlink:href="#m895ca69d98" x="368.660265" y="184.435781" style="stroke: #000000; stroke-width: 0.8"/>
      </g>
     </g>
     <g id="text_28">
      <!-- 0 -->
      <g transform="translate(355.297765 188.234609) scale(0.1 -0.1)">
       <use xlink:href="#DejaVuSans-13"/>
      </g>
     </g>
    </g>
    <g id="ytick_10">
     <g id="line2d_21">
      <g>
       <use xlink:href="#m895ca69d98" x="368.660265" y="162.991647" style="stroke: #000000; stroke-width: 0.8"/>
      </g>
     </g>
     <g id="text_29">
      <!-- 5 -->
      <g transform="translate(355.297765 166.790475) scale(0.1 -0.1)">
       <use xlink:href="#DejaVuSans-18"/>
      </g>
     </g>
    </g>
    <g id="ytick_11">
     <g id="line2d_22">
      <g>
       <use xlink:href="#m895ca69d98" x="368.660265" y="141.547512" style="stroke: #000000; stroke-width: 0.8"/>
      </g>
     </g>
     <g id="text_30">
      <!-- 10 -->
      <g transform="translate(348.935265 145.346341) scale(0.1 -0.1)">
       <use xlink:href="#DejaVuSans-14"/>
       <use xlink:href="#DejaVuSans-13" transform="translate(63.625 0)"/>
      </g>
     </g>
    </g>
    <g id="ytick_12">
     <g id="line2d_23">
      <g>
       <use xlink:href="#m895ca69d98" x="368.660265" y="120.103378" style="stroke: #000000; stroke-width: 0.8"/>
      </g>
     </g>
     <g id="text_31">
      <!-- 15 -->
      <g transform="translate(348.935265 123.902206) scale(0.1 -0.1)">
       <use xlink:href="#DejaVuSans-14"/>
       <use xlink:href="#DejaVuSans-18" transform="translate(63.625 0)"/>
      </g>
     </g>
    </g>
    <g id="ytick_13">
     <g id="line2d_24">
      <g>
       <use xlink:href="#m895ca69d98" x="368.660265" y="98.659244" style="stroke: #000000; stroke-width: 0.8"/>
      </g>
     </g>
     <g id="text_32">
      <!-- 20 -->
      <g transform="translate(348.935265 102.458072) scale(0.1 -0.1)">
       <use xlink:href="#DejaVuSans-15"/>
       <use xlink:href="#DejaVuSans-13" transform="translate(63.625 0)"/>
      </g>
     </g>
    </g>
    <g id="ytick_14">
     <g id="line2d_25">
      <g>
       <use xlink:href="#m895ca69d98" x="368.660265" y="77.215109" style="stroke: #000000; stroke-width: 0.8"/>
      </g>
     </g>
     <g id="text_33">
      <!-- 25 -->
      <g transform="translate(348.935265 81.013937) scale(0.1 -0.1)">
       <use xlink:href="#DejaVuSans-15"/>
       <use xlink:href="#DejaVuSans-18" transform="translate(63.625 0)"/>
      </g>
     </g>
    </g>
    <g id="ytick_15">
     <g id="line2d_26">
      <g>
       <use xlink:href="#m895ca69d98" x="368.660265" y="55.770975" style="stroke: #000000; stroke-width: 0.8"/>
      </g>
     </g>
     <g id="text_34">
      <!-- 30 -->
      <g transform="translate(348.935265 59.569803) scale(0.1 -0.1)">
       <use xlink:href="#DejaVuSans-16"/>
       <use xlink:href="#DejaVuSans-13" transform="translate(63.625 0)"/>
      </g>
     </g>
    </g>
    <g id="ytick_16">
     <g id="line2d_27">
      <g>
       <use xlink:href="#m895ca69d98" x="368.660265" y="34.32684" style="stroke: #000000; stroke-width: 0.8"/>
      </g>
     </g>
     <g id="text_35">
      <!-- 35 -->
      <g transform="translate(348.935265 38.125668) scale(0.1 -0.1)">
       <use xlink:href="#DejaVuSans-16"/>
       <use xlink:href="#DejaVuSans-18" transform="translate(63.625 0)"/>
      </g>
     </g>
    </g>
    <g id="text_36">
     <!-- channels: (order+1)² -->
     <g transform="translate(342.532921 155.651172) rotate(-90) scale(0.1 -0.1)">
      <defs>
       <path id="DejaVuSans-4f" d="M 603 4863 
L 1178 4863 
L 1178 0 
L 603 0 
L 603 4863 
z
" transform="scale(0.015625)"/>
       <path id="DejaVuSans-e" d="M 2944 4013 
L 2944 2272 
L 4684 2272 
L 4684 1741 
L 2944 1741 
L 2944 0 
L 2419 0 
L 2419 1741 
L 678 1741 
L 678 2272 
L 2419 2272 
L 2419 4013 
L 2944 4013 
z
" transform="scale(0.015625)"/>
       <path id="DejaVuSans-74" d="M 838 2444 
L 2163 2444 
L 2163 2088 
L 294 2088 
L 294 2431 
Q 400 2528 597 2703 
Q 1672 3656 1672 3950 
Q 1672 4156 1509 4282 
Q 1347 4409 1081 4409 
Q 919 4409 728 4354 
Q 538 4300 313 4191 
L 313 4575 
Q 553 4663 761 4706 
Q 969 4750 1147 4750 
Q 1600 4750 1872 4544 
Q 2144 4338 2144 4000 
Q 2144 3566 1109 2678 
Q 934 2528 838 2444 
z
" transform="scale(0.015625)"/>
      </defs>
      <use xlink:href="#DejaVuSans-46"/>
      <use xlink:href="#DejaVuSans-4b" transform="translate(54.984375 0)"/>
      <use xlink:href="#DejaVuSans-44" transform="translate(118.359375 0)"/>
      <use xlink:href="#DejaVuSans-51" transform="translate(179.640625 0)"/>
      <use xlink:href="#DejaVuSans-51" transform="translate(243.015625 0)"/>
      <use xlink:href="#DejaVuSans-48" transform="translate(306.390625 0)"/>
      <use xlink:href="#DejaVuSans-4f" transform="translate(367.921875 0)"/>
      <use xlink:href="#DejaVuSans-56" transform="translate(395.703125 0)"/>
      <use xlink:href="#DejaVuSans-1d" transform="translate(447.796875 0)"/>
      <use xlink:href="#DejaVuSans-3" transform="translate(481.484375 0)"/>
      <use xlink:href="#DejaVuSans-b" transform="translate(513.265625 0)"/>
      <use xlink:href="#DejaVuSans-52" transform="translate(552.28125 0)"/>
      <use xlink:href="#DejaVuSans-55" transform="translate(613.46875 0)"/>
      <use xlink:href="#DejaVuSans-47" transform="translate(652.828125 0)"/>
      <use xlink:href="#DejaVuSans-48" transform="translate(716.3125 0)"/>
      <use xlink:href="#DejaVuSans-55" transform="translate(777.84375 0)"/>
      <use xlink:href="#DejaVuSans-e" transform="translate(818.953125 0)"/>
      <use xlink:href="#DejaVuSans-14" transform="translate(902.75 0)"/>
      <use xlink:href="#DejaVuSans-c" transform="translate(966.375 0)"/>
      <use xlink:href="#DejaVuSans-74" transform="translate(1005.390625 0)"/>
     </g>
    </g>
   </g>
   <g id="patch_11">
    <path d="M 368.660265 184.435781 
L 368.660265 22.318125 
" style="fill: none; stroke: #000000; stroke-width: 0.8; stroke-linejoin: miter; stroke-linecap: square"/>
   </g>
   <g id="patch_12">
    <path d="M 368.660265 184.435781 
L 632.925937 184.435781 
" style="fill: none; stroke: #000000; stroke-width: 0.8; stroke-linejoin: miter; stroke-linecap: square"/>
   </g>
   <g id="text_37">
    <!-- 4 -->
    <g transform="translate(393.477141 165.118364) scale(0.09 -0.09)">
     <use xlink:href="#DejaVuSans-17"/>
    </g>
   </g>
   <g id="text_38">
    <!-- 9 -->
    <g transform="translate(445.703559 143.67423) scale(0.09 -0.09)">
     <defs>
      <path id="DejaVuSans-1c" d="M 703 97 
L 703 672 
Q 941 559 1184 500 
Q 1428 441 1663 441 
Q 2288 441 2617 861 
Q 2947 1281 2994 2138 
Q 2813 1869 2534 1725 
Q 2256 1581 1919 1581 
Q 1219 1581 811 2004 
Q 403 2428 403 3163 
Q 403 3881 828 4315 
Q 1253 4750 1959 4750 
Q 2769 4750 3195 4129 
Q 3622 3509 3622 2328 
Q 3622 1225 3098 567 
Q 2575 -91 1691 -91 
Q 1453 -91 1209 -44 
Q 966 3 703 97 
z
M 1959 2075 
Q 2384 2075 2632 2365 
Q 2881 2656 2881 3163 
Q 2881 3666 2632 3958 
Q 2384 4250 1959 4250 
Q 1534 4250 1286 3958 
Q 1038 3666 1038 3163 
Q 1038 2656 1286 2365 
Q 1534 2075 1959 2075 
z
" transform="scale(0.015625)"/>
     </defs>
     <use xlink:href="#DejaVuSans-1c"/>
    </g>
   </g>
   <g id="text_39">
    <!-- 16 -->
    <g transform="translate(495.066851 113.652442) scale(0.09 -0.09)">
     <use xlink:href="#DejaVuSans-14"/>
     <use xlink:href="#DejaVuSans-19" transform="translate(63.625 0)"/>
    </g>
   </g>
   <g id="text_40">
    <!-- 25 -->
    <g transform="translate(547.293269 75.053) scale(0.09 -0.09)">
     <use xlink:href="#DejaVuSans-15"/>
     <use xlink:href="#DejaVuSans-18" transform="translate(63.625 0)"/>
    </g>
   </g>
   <g id="text_41">
    <!-- 36 -->
    <g transform="translate(599.519686 27.875904) scale(0.09 -0.09)">
     <use xlink:href="#DejaVuSans-16"/>
     <use xlink:href="#DejaVuSans-19" transform="translate(63.625 0)"/>
    </g>
   </g>
   <g id="text_42">
    <!-- What order costs: channel count -->
    <g transform="translate(403.136539 16.318125) scale(0.12 -0.12)">
     <use xlink:href="#DejaVuSans-3a"/>
     <use xlink:href="#DejaVuSans-4b" transform="translate(98.875 0)"/>
     <use xlink:href="#DejaVuSans-44" transform="translate(162.25 0)"/>
     <use xlink:href="#DejaVuSans-57" transform="translate(223.53125 0)"/>
     <use xlink:href="#DejaVuSans-3" transform="translate(262.734375 0)"/>
     <use xlink:href="#DejaVuSans-52" transform="translate(294.515625 0)"/>
     <use xlink:href="#DejaVuSans-55" transform="translate(355.703125 0)"/>
     <use xlink:href="#DejaVuSans-47" transform="translate(395.0625 0)"/>
     <use xlink:href="#DejaVuSans-48" transform="translate(458.546875 0)"/>
     <use xlink:href="#DejaVuSans-55" transform="translate(520.078125 0)"/>
     <use xlink:href="#DejaVuSans-3" transform="translate(561.1875 0)"/>
     <use xlink:href="#DejaVuSans-46" transform="translate(592.96875 0)"/>
     <use xlink:href="#DejaVuSans-52" transform="translate(647.953125 0)"/>
     <use xlink:href="#DejaVuSans-56" transform="translate(709.140625 0)"/>
     <use xlink:href="#DejaVuSans-57" transform="translate(761.234375 0)"/>
     <use xlink:href="#DejaVuSans-56" transform="translate(800.4375 0)"/>
     <use xlink:href="#DejaVuSans-1d" transform="translate(852.53125 0)"/>
     <use xlink:href="#DejaVuSans-3" transform="translate(886.21875 0)"/>
     <use xlink:href="#DejaVuSans-46" transform="translate(918 0)"/>
     <use xlink:href="#DejaVuSans-4b" transform="translate(972.984375 0)"/>
     <use xlink:href="#DejaVuSans-44" transform="translate(1036.359375 0)"/>
     <use xlink:href="#DejaVuSans-51" transform="translate(1097.640625 0)"/>
     <use xlink:href="#DejaVuSans-51" transform="translate(1161.015625 0)"/>
     <use xlink:href="#DejaVuSans-48" transform="translate(1224.390625 0)"/>
     <use xlink:href="#DejaVuSans-4f" transform="translate(1285.921875 0)"/>
     <use xlink:href="#DejaVuSans-3" transform="translate(1313.703125 0)"/>
     <use xlink:href="#DejaVuSans-46" transform="translate(1345.484375 0)"/>
     <use xlink:href="#DejaVuSans-52" transform="translate(1400.46875 0)"/>
     <use xlink:href="#DejaVuSans-58" transform="translate(1461.65625 0)"/>
     <use xlink:href="#DejaVuSans-51" transform="translate(1525.03125 0)"/>
     <use xlink:href="#DejaVuSans-57" transform="translate(1588.40625 0)"/>
    </g>
   </g>
  </g>
 </g>
 <defs>
  <clipPath id="pc07c02462e">
   <rect x="47.288281" y="22.318125" width="264.265673" height="162.117656"/>
  </clipPath>
  <clipPath id="p42dcb6c36d">
   <rect x="368.660265" y="22.318125" width="264.265673" height="162.117656"/>
  </clipPath>
 </defs>
</svg>
